<?xml version="1.0" encoding="utf-8"?>
<svg version="1.1" xmlns:xlink="http://www.w3.org/1999/xlink" width="80px" height="35px" xmlns="http://www.w3.org/2000/svg">
  <g transform="matrix(1 0 0 1 -1825 -164 )">
    <path d="M 1826 169  A 4 4 0 0 1 1830 165 L 1900 165  A 4 4 0 0 1 1904 169 L 1904 194  A 4 4 0 0 1 1900 198 L 1830 198  A 4 4 0 0 1 1826 194 L 1826 169  Z " fill-rule="nonzero" fill="#f0f7ff" stroke="none" />
    <path d="M 1825.5 169  A 4.5 4.5 0 0 1 1830 164.5 L 1900 164.5  A 4.5 4.5 0 0 1 1904.5 169 L 1904.5 194  A 4.5 4.5 0 0 1 1900 198.5 L 1830 198.5  A 4.5 4.5 0 0 1 1825.5 194 L 1825.5 169  Z " stroke-width="1" stroke="#7abbff" fill="none" stroke-opacity="0.996078431372549" />
  </g>
</svg>