<?xml version="1.0" encoding="utf-8"?>
<svg version="1.1" xmlns:xlink="http://www.w3.org/1999/xlink" width="50px" height="25px" xmlns="http://www.w3.org/2000/svg">
  <g transform="matrix(1 0 0 1 -125 -305 )">
    <path d="M 125.5 308  A 2.5 2.5 0 0 1 128 305.5 L 172 305.5  A 2.5 2.5 0 0 1 174.5 308 L 174.5 327  A 2.5 2.5 0 0 1 172 329.5 L 128 329.5  A 2.5 2.5 0 0 1 125.5 327 L 125.5 308  Z " fill-rule="nonzero" fill="#ffffff" stroke="none" />
    <path d="M 125.5 308  A 2.5 2.5 0 0 1 128 305.5 L 172 305.5  A 2.5 2.5 0 0 1 174.5 308 L 174.5 327  A 2.5 2.5 0 0 1 172 329.5 L 128 329.5  A 2.5 2.5 0 0 1 125.5 327 L 125.5 308  Z " stroke-width="1" stroke="#e4e4e4" fill="none" />
  </g>
</svg>