<?xml version="1.0" encoding="utf-8"?>
<svg version="1.1" xmlns:xlink="http://www.w3.org/1999/xlink" width="19px" height="20px" xmlns="http://www.w3.org/2000/svg">
  <g transform="matrix(1 0 0 1 -321 -60 )">
    <path d="M 11.65234375 12.265625  C 12.6533453525641 11.2119391025641  13.1538461538462 9.94391025641028  13.1538461538462 8.46153846153857  C 13.1538461538462 6.97916666666674  12.6533453525641 5.71113782051282  11.65234375 4.65745192307691  C 10.6513421474359 3.60376602564099  9.44671474358976 3.07692307692309  8.03846153846153 3.07692307692309  C 6.6302083333333 3.07692307692309  5.42558092948718 3.60376602564099  4.42457932692306 4.65745192307691  C 3.42357772435894 5.71113782051282  2.92307692307694 6.97916666666674  2.92307692307694 8.46153846153857  C 2.92307692307694 9.94391025641028  3.42357772435894 11.2119391025641  4.42457932692306 12.265625  C 5.42558092948718 13.3193108974359  6.6302083333333 13.8461538461539  8.03846153846153 13.8461538461539  C 9.44671474358976 13.8461538461539  10.6513421474359 13.3193108974359  11.65234375 12.265625  Z M 18.5775240384615 17.3798076923077  C 18.8591746794872 17.6762820512821  19 18.036858974359  19 18.4615384615385  C 19 18.8782051282051  18.8553685897436 19.2387820512821  18.5661057692308 19.5432692307693  C 18.2768429487179 19.8477564102565  17.9342948717949 20  17.5384615384615 20  C 17.1274038461538 20  16.7848557692308 19.8477564102565  16.5108173076923 19.5432692307693  L 12.5943509615385 15.4326923076923  C 11.2317708333333 16.4262820512821  9.71314102564106 16.9230769230768  8.03846153846153 16.9230769230768  C 6.94991987179488 16.9230769230768  5.90895432692306 16.7007211538461  4.91556490384617 16.2560096153846  C 3.92217548076923 15.8112980769232  3.06580528846153 15.2103365384615  2.34645432692306 14.453125  C 1.62710336538459 13.6959134615385  1.05618990384617 12.7944711538461  0.633713942307705 11.7487980769231  C 0.211237980769235 10.703125  0 9.60737179487182  0 8.46153846153857  C 0 7.31570512820508  0.211237980769235 6.21995192307691  0.633713942307705 5.17427884615392  C 1.05618990384617 4.12860576923072  1.62710336538459 3.22716346153857  2.34645432692306 2.46995192307691  C 3.06580528846153 1.71274038461536  3.92217548076923 1.11177884615392  4.91556490384617 0.667067307692264  C 5.90895432692306 0.222355769230717  6.94991987179488 0  8.03846153846153 0  C 9.12700320512818 0  10.16796875 0.222355769230717  11.1613581730769 0.667067307692264  C 12.1547475961538 1.11177884615392  13.0111177884615 1.71274038461536  13.73046875 2.46995192307691  C 14.4498197115385 3.22716346153857  15.0207331730769 4.12860576923072  15.4432091346154 5.17427884615392  C 15.8656850961538 6.21995192307691  16.0769230769231 7.31570512820508  16.0769230769231 8.46153846153857  C 16.0769230769231 10.224358974359  15.6049679487179 11.8229166666667  14.6610576923077 13.2572115384614  L 18.5775240384615 17.3798076923077  Z " fill-rule="nonzero" fill="#1abc9c" stroke="none" transform="matrix(1 0 0 1 321 60 )" />
  </g>
</svg>