<svg t="1602931261927" class="icon" viewBox="0 0 1024 1024" version="1.1" xmlns="http://www.w3.org/2000/svg" p-id="55893" width="48" height="48"><path d="M538.79 358.36c0-19.28-15.61-34.9-34.88-34.93H252.67c-18.79 0.67-33.68 16.1-33.68 34.9 0 18.81 14.89 34.24 33.68 34.91h251.24c19.26 0 34.88-15.62 34.88-34.88zM252.67 574.67h61.68c16.94 0.28 31.76-11.38 35.47-27.92 1.85-9.09 0-18.55-5.15-26.27a34.844 34.844 0 0 0-22.27-14.86c-2.28-0.48-4.6-0.72-6.93-0.71h-61.5c-16.93-0.26-31.72 11.39-35.42 27.91-1.87 9.07-0.05 18.5 5.06 26.22a34.777 34.777 0 0 0 22.15 14.92c2.27 0.47 4.59 0.71 6.91 0.71z m0 174.49h111.66c18.79-0.67 33.68-16.1 33.68-34.9 0-18.8-14.89-34.23-33.68-34.9H252.67a34.939 34.939 0 0 0-31.29 17.08 34.915 34.915 0 0 0 0 35.64 34.94 34.94 0 0 0 31.29 17.08z m467.55-265.21c-131.06 0-237.3 106.24-237.3 237.3s106.24 237.3 237.3 237.3c131.05 0 237.3-106.24 237.3-237.3 0.01-62.94-24.99-123.3-69.49-167.81a237.31 237.31 0 0 0-167.81-69.49z m0 404.79c-92.5 0-167.49-74.99-167.49-167.49 0-92.5 74.99-167.49 167.49-167.49 92.5 0 167.49 74.99 167.49 167.49 0 44.42-17.64 87.02-49.06 118.43a167.506 167.506 0 0 1-118.43 49.06z m0 0" p-id="55894" fill="#ffffff"></path><path d="M463.08 888.74H154.91c-5.55 0-10.88-2.21-14.81-6.14a20.953 20.953 0 0 1-6.14-14.81V155.94c0-5.55 2.21-10.87 6.14-14.8 3.93-3.92 9.26-6.12 14.81-6.11h360.75a20.92 20.92 0 0 1 14.83 6.12l155.7 155.7c3.92 3.92 6.12 9.24 6.12 14.79v103.84c9.23-0.83 18.54-1.27 27.92-1.29 14.01 0.01 28.01 0.97 41.89 2.91V311.64a90.23 90.23 0 0 0-26.58-64.14L579.84 92.03a90.254 90.254 0 0 0-64.14-26.8H154.95c-50.1 0-90.71 40.61-90.71 90.71v711.85c0 24.06 9.56 47.13 26.57 64.14a90.73 90.73 0 0 0 64.15 26.57h370.71a309.2 309.2 0 0 1-62.59-69.76z m0 0" p-id="55895" fill="#ffffff"></path><path d="M837.06 669.32l-17.54-17.54c-4.82-4.69-12.72-4.69-17.41 0L697 756.76l-58.78-58.78-0.13-0.13c-2.41-2.28-5.36-3.48-8.7-3.48-3.35 0-6.43 1.34-8.7 3.62l-17.41 17.54c-4.69 4.82-4.69 12.72 0 17.41l65.75 65.75c0.54 0.67 0.94 1.34 1.61 2.01l17.41 17.67h0.13c2.41 2.28 5.36 3.48 8.7 3.48 3.21 0 6.43-1.34 8.7-3.61l131.49-131.49 0.13-0.13c2.28-2.41 3.48-5.36 3.48-8.7-0.01-3.24-1.35-6.32-3.62-8.6z m0 0" p-id="55896" fill="#ffffff"></path></svg>