<svg t="1602931345669" class="icon" viewBox="0 0 1024 1024" version="1.1" xmlns="http://www.w3.org/2000/svg" p-id="57834" width="48" height="48"><path d="M832 128h-128v-32a32 32 0 0 0-64 0V128H384v-32a30.08 30.08 0 0 0-32-32 30.08 30.08 0 0 0-32 32V128H192a60.16 60.16 0 0 0-64 64v640a60.16 60.16 0 0 0 64 64h640a60.16 60.16 0 0 0 64-64V192a64 64 0 0 0-64-64z m0 704H192V320h640z" p-id="57835" fill="#ffffff"></path><path d="M480 448m32 0l0 0q32 0 32 32l0 192q0 32-32 32l0 0q-32 0-32-32l0-192q0-32 32-32Z" p-id="57836" fill="#ffffff"></path><path d="M384 544m32 0l192 0q32 0 32 32l0 0q0 32-32 32l-192 0q-32 0-32-32l0 0q0-32 32-32Z" p-id="57837" fill="#ffffff"></path></svg>