<svg t="1602931425660" class="icon" viewBox="0 0 1024 1024" version="1.1" xmlns="http://www.w3.org/2000/svg" p-id="58477" width="48" height="48"><path d="M933.8 483.93L805.32 605.85c-19.66 18.35-28.84 44.57-23.59 70.79l32.77 174.35c7.87 43.26-20.97 83.9-62.92 91.76-3.93 1.31-9.17 1.31-13.11 1.31-13.11 0-26.22-3.93-38.02-10.49l-150.76-83.9c-23.6-13.11-52.44-13.11-76.04 0l-150.76 83.9c-11.8 6.56-24.91 10.49-38.02 10.49-17.04 0-32.77-5.24-45.88-15.73-24.91-17.04-36.71-48.51-31.46-78.66l32.77-174.35c5.24-26.22-3.93-53.75-23.6-70.79L88.25 482.62c-31.46-30.15-32.77-79.97-2.62-111.43 11.8-13.11 28.84-20.97 47.19-23.59l173.04-22.29c27.53-2.62 49.82-19.66 61.62-44.57l73.41-156c18.35-39.33 64.23-56.37 103.56-38.01 17.04 7.86 30.15 20.98 38.02 38.01l73.41 158.62c10.49 24.91 34.08 41.95 61.61 44.57l173.04 22.28c43.26 5.24 73.41 44.57 68.17 87.84-3.93 17.04-11.8 32.77-24.9 45.88z m-41.95-61.62c-1.31-5.24-5.24-9.18-10.49-9.18l-173.04-22.28c-49.82-5.24-91.77-36.71-111.43-82.59l-73.41-156c-2.62-6.56-10.49-9.18-17.04-6.56-2.62 1.31-5.24 3.94-6.56 6.56l-73.41 158.62c-20.97 44.57-62.92 76.03-112.74 82.59L142 413.14c-6.56 1.31-11.8 7.87-11.8 14.42 0 2.62 1.31 5.24 3.93 7.86L262.6 557.34c35.39 32.77 51.13 82.59 41.95 131.09l-32.77 174.35c-1.31 5.24 1.31 10.49 5.24 13.11 2.62 1.31 5.24 2.62 7.86 2.62s3.94-1.31 6.56-2.62l149.45-82.59c43.26-24.91 97.01-24.91 140.27 0l150.76 83.9c2.62 1.31 3.93 1.31 6.56 2.62 2.62 0 5.24-1.31 7.86-2.62 3.94-2.62 6.56-7.87 5.24-13.11L718.8 689.74c-9.18-48.51 6.55-97.01 41.95-131.09l128.47-121.92c3.93-3.93 5.25-9.17 2.63-14.42z m0 0" fill="#ffffff" p-id="58478"></path><path d="M518.23 674.01c-13.11 13.11-34.09 13.11-45.88 0L370.1 571.76c-11.8-13.11-11.8-34.08 1.31-45.88 13.11-11.8 31.46-11.8 44.57 0l78.66 78.66 153.38-153.38c13.11-11.8 34.09-11.8 45.88 1.31 11.8 13.11 11.8 31.46 0 44.57L518.23 674.01z m0 0" fill="#ffffff" p-id="58479"></path></svg>