<?xml version="1.0" encoding="utf-8"?>
<svg version="1.1" xmlns:xlink="http://www.w3.org/1999/xlink" width="39px" height="20px" xmlns="http://www.w3.org/2000/svg">
  <g transform="matrix(1 0 0 1 -468 -56 )">
    <path d="M 469 66  A 9 9 0 0 1 478 57 L 497 57  A 9 9 0 0 1 506 66 A 9 9 0 0 1 497 75 L 478 75  A 9 9 0 0 1 469 66 Z " fill-rule="nonzero" fill="#f0f7ff" stroke="none" />
    <path d="M 468.5 66  A 9.5 9.5 0 0 1 478 56.5 L 497 56.5  A 9.5 9.5 0 0 1 506.5 66 A 9.5 9.5 0 0 1 497 75.5 L 478 75.5  A 9.5 9.5 0 0 1 468.5 66 Z " stroke-width="1" stroke="#7abbff" fill="none" stroke-opacity="0.996078431372549" />
  </g>
</svg>