<?xml version="1.0" encoding="utf-8"?>
<svg version="1.1" xmlns:xlink="http://www.w3.org/1999/xlink" width="43px" height="43px" xmlns="http://www.w3.org/2000/svg">
  <g transform="matrix(1 0 0 1 -39 -4 )">
    <path d="M 60.5 4  C 72.54 4  82 13.46  82 25.5  C 82 37.54  72.54 47  60.5 47  C 48.46 47  39 37.54  39 25.5  C 39 13.46  48.46 4  60.5 4  Z " fill-rule="nonzero" fill="#ffffff" stroke="none" />
    <path d="M 60.5 4.5  C 72.26 4.5  81.5 13.74  81.5 25.5  C 81.5 37.26  72.26 46.5  60.5 46.5  C 48.74 46.5  39.5 37.26  39.5 25.5  C 39.5 13.74  48.74 4.5  60.5 4.5  Z " stroke-width="1" stroke="#797979" fill="none" />
  </g>
</svg>