<svg t="1602931197583" class="icon" viewBox="0 0 1024 1024" version="1.1" xmlns="http://www.w3.org/2000/svg" p-id="55414" width="48" height="48"><path d="M503 839.1H219.6c-42.3 0-76.6-34.3-76.6-76.6V197.1c0-43.1 34.9-78 78-78h591.7c46.7 0 78.1 32.7 78.1 81.5v30.2c0 17.5-14.2 31.7-31.6 31.7-17.5 0-31.7-14.2-31.7-31.7v-30.3c0-18.1-6.8-18.1-14.7-18.1H221c-7.9 0-14.6 6.7-14.6 14.7v565.3c0 7.3 6 13.3 13.3 13.3h282.7c17.3 0 31.8 13.5 32.3 30.8 0.4 17.9-13.9 32.6-31.7 32.6z" fill="#ffffff" p-id="55415"></path><path d="M861.3 659.1H507.2c-17.5 0-31.7-14.2-31.7-31.7s14.2-31.7 31.7-31.7h354.1c17.5 0 31.7 14.2 31.7 31.7-0.1 17.5-14.2 31.7-31.7 31.7zM596.1 344.3H320.2c-17.5 0-31.7-14.2-31.7-31.7s14.2-31.7 31.7-31.7h275.9c17.5 0 31.7 14.2 31.7 31.7s-14.2 31.7-31.7 31.7zM440.8 486H320.2c-17.5 0-31.7-14.2-31.7-31.7s14.2-31.7 31.7-31.7h120.6c17.5 0 31.7 14.2 31.7 31.7 0 17.6-14.2 31.7-31.7 31.7z" fill="#ffffff" p-id="55416"></path><path d="M684.2 836.1c-17.5 0-31.7-14.2-31.7-31.7v-354c0-17.5 14.2-31.7 31.7-31.7s31.7 14.2 31.7 31.7v354c0 17.5-14.2 31.7-31.7 31.7z" fill="#ffffff" p-id="55417"></path></svg>