<?xml version="1.0" encoding="utf-8"?>
<svg version="1.1" xmlns:xlink="http://www.w3.org/1999/xlink" width="120px" height="120px" xmlns="http://www.w3.org/2000/svg">
  <g transform="matrix(1 0 0 1 -282 -1866 )">
    <path d="M 342 1866  C 375.6 1866  402 1892.4  402 1926  C 402 1959.6  375.6 1986  342 1986  C 308.4 1986  282 1959.6  282 1926  C 282 1892.4  308.4 1866  342 1866  Z " fill-rule="nonzero" fill="#ffffff" stroke="none" />
    <path d="M 342 1866.5  C 375.32 1866.5  401.5 1892.68  401.5 1926  C 401.5 1959.32  375.32 1985.5  342 1985.5  C 308.68 1985.5  282.5 1959.32  282.5 1926  C 282.5 1892.68  308.68 1866.5  342 1866.5  Z " stroke-width="1" stroke="#ffffff" fill="none" />
  </g>
</svg>