<?xml version="1.0" encoding="utf-8"?>
<svg version="1.1" xmlns:xlink="http://www.w3.org/1999/xlink" width="31px" height="34px" xmlns="http://www.w3.org/2000/svg">
  <g transform="matrix(1 0 0 1 -133 -814 )">
    <path d="M 15.5 32.4821428571429  C 15.698717948718 32.4821428571429  15.7980769230769 32.3809523809524  15.7980769230769 32.1785714285714  C 15.7980769230769 31.9761904761905  15.698717948718 31.875  15.5 31.875  C 14.7672275641026 31.875  14.1369190705128 31.606212797619  13.6090745192308 31.0686383928571  C 13.0812299679487 30.5310639880952  12.8173076923077 29.8891369047619  12.8173076923077 29.1428571428571  C 12.8173076923077 28.9404761904762  12.7179487179487 28.8392857142857  12.5192307692308 28.8392857142857  C 12.3205128205128 28.8392857142857  12.2211538461538 28.9404761904762  12.2211538461538 29.1428571428571  C 12.2211538461538 30.0662202380952  12.5409655448718 30.8536086309524  13.1805889423077 31.5050223214286  C 13.8202123397436 32.1564360119048  14.5933493589744 32.4821428571429  15.5 32.4821428571429  Z M 8.34615384615384 10.9285714285714  C 8.34615384615384 17.6577380952381  6.6943108974359 22.9196428571429  3.390625 26.7142857142857  L 27.609375 26.7142857142857  C 24.3056891025641 22.9196428571429  22.6538461538462 17.6577380952381  22.6538461538462 10.9285714285714  C 22.6538461538462 10.2834821428571  22.5048076923077 9.61941964285714  22.2067307692308 8.93638392857143  C 21.9086538461538 8.25334821428571  21.4801682692308 7.60193452380952  20.9212740384615 6.98214285714286  C 20.3623798076923 6.36235119047619  19.6078725961538 5.85323660714286  18.6577524038462 5.45479910714286  C 17.7076322115385 5.05636160714286  16.6550480769231 4.85714285714286  15.5 4.85714285714286  C 14.3449519230769 4.85714285714286  13.2923677884615 5.05636160714286  12.3422475961538 5.45479910714286  C 11.3921274038462 5.85323660714286  10.6376201923077 6.36235119047619  10.0787259615385 6.98214285714286  C 9.51983173076923 7.60193452380952  9.09134615384616 8.25334821428571  8.79326923076923 8.93638392857143  C 8.49519230769231 9.61941964285714  8.34615384615384 10.2834821428571  8.34615384615384 10.9285714285714  Z M 29.3046875 25.0446428571429  C 29.8139022435897 25.6264880952381  30.3790064102564 26.1830357142857  31 26.7142857142857  C 31 27.3720238095238  30.7640224358974 27.9412202380952  30.2920673076923 28.421875  C 29.8201121794872 28.9025297619048  29.261217948718 29.1428571428571  28.6153846153846 29.1428571428571  L 20.2692307692308 29.1428571428571  C 20.2692307692308 30.483630952381  19.8034855769231 31.6283482142857  18.8719951923077 32.5770089285714  C 17.9405048076923 33.5256696428571  16.8165064102564 34  15.5 34  C 14.1834935897436 34  13.0594951923077 33.5256696428571  12.1280048076923 32.5770089285714  C 11.1965144230769 31.6283482142857  10.7307692307692 30.483630952381  10.7307692307692 29.1428571428571  L 2.38461538461538 29.1428571428571  C 1.73878205128205 29.1428571428571  1.17988782051282 28.9025297619048  0.707932692307692 28.421875  C 0.235977564102564 27.9412202380952  0 27.3720238095238  0 26.7142857142857  C 0.62099358974359 26.1830357142857  1.18609775641026 25.6264880952381  1.6953125 25.0446428571429  C 2.20452724358974 24.4627976190476  2.7323717948718 23.70703125  3.27884615384615 22.77734375  C 3.82532051282051 21.84765625  4.28796073717949 20.8452380952381  4.66676682692308 19.7700892857143  C 5.04557291666667 18.6949404761905  5.35606971153846 17.3921130952381  5.59825721153846 15.8616071428571  C 5.84044471153846 14.3311011904762  5.96153846153846 12.6867559523809  5.96153846153846 10.9285714285714  C 5.96153846153846 9.00595238095238  6.68810096153846 7.21930803571429  8.14122596153846 5.56863839285714  C 9.59435096153846 3.91796875  11.5008012820513 2.91555059523809  13.8605769230769 2.56138392857143  C 13.7612179487179 2.32105654761904  13.7115384615385 2.07440476190476  13.7115384615385 1.82142857142857  C 13.7115384615385 1.31547619047619  13.8854166666667 0.885416666666665  14.2331730769231 0.53125  C 14.5809294871795 0.177083333333335  15.0032051282051 0  15.5 0  C 15.9967948717949 0  16.4190705128205 0.177083333333335  16.7668269230769 0.53125  C 17.1145833333333 0.885416666666665  17.2884615384615 1.31547619047619  17.2884615384615 1.82142857142857  C 17.2884615384615 2.07440476190476  17.2387820512821 2.32105654761904  17.1394230769231 2.56138392857143  C 19.4991987179487 2.91555059523809  21.4056490384615 3.91796875  22.8587740384615 5.56863839285714  C 24.3118990384615 7.21930803571429  25.0384615384615 9.00595238095238  25.0384615384615 10.9285714285714  C 25.0384615384615 12.6867559523809  25.1595552884615 14.3311011904762  25.4017427884615 15.8616071428571  C 25.6439302884615 17.3921130952381  25.9544270833333 18.6949404761905  26.3332331730769 19.7700892857143  C 26.7120392628205 20.8452380952381  27.1746794871795 21.84765625  27.7211538461538 22.77734375  C 28.2676282051282 23.70703125  28.7954727564103 24.4627976190476  29.3046875 25.0446428571429  Z " fill-rule="nonzero" fill="#f6f9fe" stroke="none" transform="matrix(1 0 0 1 133 814 )" />
  </g>
</svg>