<?xml version="1.0" encoding="utf-8"?>
<svg version="1.1" xmlns:xlink="http://www.w3.org/1999/xlink" width="33px" height="26px" xmlns="http://www.w3.org/2000/svg">
  <g transform="matrix(1 0 0 1 -215 -817 )">
    <path d="M 28.2565055762082 14.8542478565861  C 28.270136307311 14.8812678617823  28.2769516728625 14.9217978695765  28.2769516728625 14.9758378799688  L 28.2769516728625 24.7030397505846  C 28.2769516728625 25.0542998181346  28.1474597273854 25.3582748765913  27.8884758364312 25.6149649259548  C 27.6294919454771 25.8716549753183  27.322800495663 26  26.9684014869888 26  L 19.1171003717472 26  L 19.1171003717472 18.2182385035074  L 13.8828996282528 18.2182385035074  L 13.8828996282528 26  L 6.03159851301115 26  C 5.67719950433705 26  5.37050805452292 25.8716549753183  5.11152416356877 25.6149649259548  C 4.85254027261462 25.3582748765913  4.72304832713755 25.0542998181346  4.72304832713755 24.7030397505846  L 4.72304832713755 14.9758378799688  C 4.72304832713755 14.9623278773707  4.72645600991326 14.9420628734736  4.73327137546468 14.9150428682775  C 4.74008674101611 14.8880228630813  4.74349442379182 14.8677578591842  4.74349442379182 14.8542478565861  L 16.5 5.24863600935308  L 28.2565055762082 14.8542478565861  Z M 32.9795539033457 13.1013250194856  C 32.9931846344486 13.2837100545596  32.9454770755886 13.442452585087  32.8364312267658 13.5775526110678  L 31.5687732342007 15.0771628994544  C 31.4597273853779 15.1987529228371  31.316604708798 15.2730579371265  31.139405204461 15.3000779423227  L 31.0780669144981 15.3000779423227  C 30.9008674101611 15.3000779423227  30.7577447335812 15.2527929332294  30.6486988847584 15.1582229150429  L 16.5 3.46531566640686  L 2.35130111524164 15.1582229150429  C 2.18773234200743 15.2663029358275  2.02416356877323 15.3135879449208  1.86059479553903 15.3000779423227  C 1.68339529120198 15.2730579371265  1.54027261462206 15.1987529228371  1.43122676579926 15.0771628994544  L 0.163568773234201 13.5775526110678  C 0.0545229244114003 13.442452585087  0.00681536555142508 13.2837100545596  0.0204460966542751 13.1013250194856  C 0.0340768277571253 12.9189399844115  0.109045848822801 12.7737074564822  0.245353159851301 12.6656274356976  L 14.9460966542751 0.52689010132502  C 15.3822800495663 0.175630033775004  15.9002478314746 0  16.5 0  C 17.0997521685254 0  17.6177199504337 0.175630033775004  18.0539033457249 0.52689010132502  L 23.042750929368 4.66095089633671  L 23.042750929368 0.709275136399063  C 23.042750929368 0.520135100025978  23.1040892193309 0.364770070148089  23.2267657992565 0.243180046765395  C 23.3494423791822 0.121590023382697  23.5061957868649 0.0607950116913487  23.6970260223048 0.0607950116913487  L 27.6226765799257 0.0607950116913487  C 27.8135068153656 0.0607950116913487  27.9702602230483 0.121590023382697  28.092936802974 0.243180046765395  C 28.2156133828996 0.364770070148089  28.2769516728625 0.520135100025978  28.2769516728625 0.709275136399063  L 28.2769516728625 8.97739672642245  L 32.7546468401487 12.6656274356976  C 32.8909541511772 12.7737074564822  32.9659231722429 12.9189399844115  32.9795539033457 13.1013250194856  Z " fill-rule="nonzero" fill="#f6f9fe" stroke="none" transform="matrix(1 0 0 1 215 817 )" />
  </g>
</svg>