<?xml version="1.0" encoding="utf-8"?>
<svg version="1.1" xmlns:xlink="http://www.w3.org/1999/xlink" width="30px" height="30px" xmlns="http://www.w3.org/2000/svg">
  <g transform="matrix(1 0 0 1 -46 -815 )">
    <path d="M 28.80859375 9.1796875  C 29.6028645833333 11.0286458333333  30 12.96875  30 15  C 30 17.03125  29.6028645833333 18.9713541666667  28.80859375 20.8203125  C 28.0143229166667 22.6692708333333  26.9466145833333 24.2643229166667  25.60546875 25.60546875  C 24.2643229166667 26.9466145833333  22.6692708333333 28.0143229166667  20.8203125 28.80859375  C 18.9713541666667 29.6028645833333  17.03125 30  15 30  C 12.7604166666667 30  10.6315104166667 29.5279947916667  8.61328125 28.583984375  C 6.59505208333333 27.6399739583333  4.87630208333333 26.30859375  3.45703125 24.58984375  C 3.36588541666667 24.4596354166667  3.32356770833333 24.3131510416667  3.330078125 24.150390625  C 3.33658854166667 23.9876302083333  3.39192708333333 23.8541666666667  3.49609375 23.75  L 6.171875 21.0546875  C 6.30208333333333 20.9375  6.46484375 20.87890625  6.66015625 20.87890625  C 6.86848958333333 20.9049479166667  7.01822916666667 20.9830729166667  7.109375 21.11328125  C 8.05989583333333 22.3502604166667  9.22526041666667 23.3072916666667  10.60546875 23.984375  C 11.9856770833333 24.6614583333333  13.4505208333333 25  15 25  C 16.3541666666667 25  17.646484375 24.736328125  18.876953125 24.208984375  C 20.107421875 23.681640625  21.171875 22.96875  22.0703125 22.0703125  C 22.96875 21.171875  23.681640625 20.107421875  24.208984375 18.876953125  C 24.736328125 17.646484375  25 16.3541666666667  25 15  C 25 13.6458333333333  24.736328125 12.353515625  24.208984375 11.123046875  C 23.681640625 9.892578125  22.96875 8.828125  22.0703125 7.9296875  C 21.171875 7.03125  20.107421875 6.318359375  18.876953125 5.791015625  C 17.646484375 5.263671875  16.3541666666667 5  15 5  C 13.7239583333333 5  12.5 5.23111979166667  11.328125 5.693359375  C 10.15625 6.15559895833333  9.11458333333333 6.81640625  8.203125 7.67578125  L 10.87890625 10.37109375  C 11.2825520833333 10.76171875  11.3736979166667 11.2109375  11.15234375 11.71875  C 10.9309895833333 12.2395833333333  10.546875 12.5  10 12.5  L 1.25 12.5  C 0.911458333333333 12.5  0.618489583333333 12.3763020833333  0.37109375 12.12890625  C 0.123697916666667 11.8815104166667  0 11.5885416666667  0 11.25  L 0 2.5  C 0 1.953125  0.260416666666667 1.56901041666667  0.78125 1.34765625  C 1.2890625 1.12630208333333  1.73828125 1.21744791666667  2.12890625 1.62109375  L 4.66796875 4.140625  C 6.06119791666667 2.82552083333333  7.65299479166667 1.806640625  9.443359375 1.083984375  C 11.2337239583333 0.361328125000001  13.0859375 0  15 0  C 17.03125 0  18.9713541666667 0.397135416666666  20.8203125 1.19140625  C 22.6692708333333 1.98567708333333  24.2643229166667 3.05338541666667  25.60546875 4.39453125  C 26.9466145833333 5.73567708333333  28.0143229166667 7.33072916666667  28.80859375 9.1796875  Z M 17.32421875 8.92578125  C 17.44140625 9.04296875  17.5 9.19270833333333  17.5 9.375  L 17.5 18.125  C 17.5 18.3072916666667  17.44140625 18.45703125  17.32421875 18.57421875  C 17.20703125 18.69140625  17.0572916666667 18.75  16.875 18.75  L 10.625 18.75  C 10.4427083333333 18.75  10.29296875 18.69140625  10.17578125 18.57421875  C 10.05859375 18.45703125  10 18.3072916666667  10 18.125  L 10 16.875  C 10 16.6927083333333  10.05859375 16.54296875  10.17578125 16.42578125  C 10.29296875 16.30859375  10.4427083333333 16.25  10.625 16.25  L 15 16.25  L 15 9.375  C 15 9.19270833333333  15.05859375 9.04296875  15.17578125 8.92578125  C 15.29296875 8.80859375  15.4427083333333 8.75  15.625 8.75  L 16.875 8.75  C 17.0572916666667 8.75  17.20703125 8.80859375  17.32421875 8.92578125  Z " fill-rule="nonzero" fill="#f6f9fe" stroke="none" transform="matrix(1 0 0 1 46 815 )" />
  </g>
</svg>