<?xml version="1.0" encoding="utf-8"?>
<svg version="1.1" xmlns:xlink="http://www.w3.org/1999/xlink" width="31px" height="28px" xmlns="http://www.w3.org/2000/svg">
  <g transform="matrix(1 0 0 1 -132 -919 )">
    <path d="M 30.0831473214286 12.6525  C 30.6943824404762 14.2158333333333  31 16.1583333333333  31 18.48  C 31 20.4166666666667  30.2676711309524 23.0475  28.8030133928571 26.3725  C 28.7684151785714 26.4541666666667  28.7078683035714 26.5941666666667  28.6213727678571 26.7925  C 28.5348772321429 26.9908333333333  28.45703125 27.1658333333333  28.3878348214286 27.3175  C 28.3186383928571 27.4691666666667  28.2436755952381 27.5975  28.1629464285714 27.7025  C 28.0245535714286 27.9008333333333  27.8630952380952 28  27.6785714285714 28  C 27.5055803571429 28  27.3700706845238 27.9416666666667  27.2720424107143 27.825  C 27.1740141369048 27.7083333333333  27.125 27.5625  27.125 27.3875  C 27.125 27.2825  27.1394159226191 27.1279166666667  27.1682477678571 26.92375  C 27.1970796130952 26.7195833333333  27.2114955357143 26.5825  27.2114955357143 26.5125  C 27.2691592261905 25.7191666666667  27.2979910714286 25.0016666666667  27.2979910714286 24.36  C 27.2979910714286 23.1816666666667  27.1970796130952 22.1258333333333  26.9952566964286 21.1925  C 26.7934337797619 20.2591666666667  26.5137648809524 19.45125  26.15625 18.76875  C 25.7987351190476 18.08625  25.3374255952381 17.4970833333333  24.7723214285714 17.00125  C 24.2072172619048 16.5054166666667  23.598865327381 16.1  22.947265625 15.785  C 22.2956659226191 15.47  21.5287388392857 15.2220833333333  20.646484375 15.04125  C 19.7642299107143 14.8604166666667  18.876209077381 14.735  17.982421875 14.665  C 17.088634672619 14.595  16.0766369047619 14.56  14.9464285714286 14.56  L 11.0714285714286 14.56  L 11.0714285714286 19.04  C 11.0714285714286 19.3433333333333  10.9618675595238 19.6058333333333  10.7427455357143 19.8275  C 10.5236235119048 20.0491666666667  10.2641369047619 20.16  9.96428571428572 20.16  C 9.66443452380953 20.16  9.40494791666667 20.0491666666667  9.18582589285714 19.8275  L 0.328683035714286 10.8675  C 0.109561011904762 10.6458333333333  0 10.3833333333333  0 10.08  C 0 9.77666666666667  0.109561011904762 9.51416666666666  0.328683035714286 9.2925  L 9.18582589285714 0.332499999999999  C 9.40494791666667 0.110833333333332  9.66443452380953 0  9.96428571428572 0  C 10.2641369047619 0  10.5236235119048 0.110833333333332  10.7427455357143 0.332499999999999  C 10.9618675595238 0.554166666666663  11.0714285714286 0.816666666666664  11.0714285714286 1.12  L 11.0714285714286 5.6  L 14.9464285714286 5.6  C 23.1692708333333 5.6  28.21484375 7.95083333333333  30.0831473214286 12.6525  Z " fill-rule="nonzero" fill="#f6f9fe" stroke="none" transform="matrix(1 0 0 1 132 919 )" />
  </g>
</svg>