<?xml version="1.0" encoding="utf-8"?>
<svg version="1.1" xmlns:xlink="http://www.w3.org/1999/xlink" width="37px" height="29px" xmlns="http://www.w3.org/2000/svg">
  <g transform="matrix(1 0 0 1 -215 -919 )">
    <path d="M 17.2556053811659 21.75  L 18.4170403587444 21.75  L 20.8228699551569 19.3607954545455  L 17.6704035874439 16.2301136363636  L 15.2645739910314 18.6193181818182  L 15.2645739910314 19.7727272727273  L 17.2556053811659 19.7727272727273  L 17.2556053811659 21.75  Z M 27.5218609865471 7.60014204545455  C 27.756913303438 7.36671401515151  27.7638266068759 7.14015151515151  27.542600896861 6.92045454545455  C 27.321375186846 6.70075757575757  27.0932361733931 6.7076231060606  26.8581838565022 6.94105113636364  L 19.5992152466368 14.1498579545455  C 19.3641629297459 14.3832859848485  19.3572496263079 14.6098484848485  19.5784753363229 14.8295454545455  C 19.7997010463378 15.0492424242424  20.0278400597907 15.0423768939394  20.2628923766816 14.8089488636364  L 27.5218609865471 7.60014204545455  Z M 28.7869955156951 18.5575284090909  C 29.0635276532138 18.6673768939394  29.2017937219731 18.8664772727273  29.2017937219731 19.1548295454545  L 29.2017937219731 23.0681818181818  C 29.2017937219731 24.702178030303  28.6176195814649 26.0993134469697  27.4492713004484 27.2595880681818  C 26.280923019432 28.4198626893939  24.8740657698057 29  23.2286995515695 29  L 5.97309417040359 29  C 4.32772795216741 29  2.92087070254111 28.4198626893939  1.75252242152466 27.2595880681818  C 0.584174140508221 26.0993134469697  0 24.702178030303  0 23.0681818181818  L 0 5.93181818181818  C 0 4.29782196969697  0.584174140508221 2.9006865530303  1.75252242152466 1.74041193181818  C 2.92087070254111 0.580137310606058  4.32772795216741 0  5.97309417040359 0  L 23.2286995515695 0  C 24.0997757847534 0  24.9086322869955 0.171638257575756  25.655269058296 0.514914772727271  C 25.862668161435 0.611032196969695  25.9871076233184 0.768939393939393  26.0285874439462 0.988636363636363  C 26.070067264574 1.22206439393939  26.0078475336323 1.42116477272727  25.8419282511211 1.5859375  L 24.8256726457399 2.59517045454545  C 24.6321001494768 2.7874053030303  24.4108744394619 2.84232954545455  24.1619955156951 2.75994318181818  C 23.8439835575486 2.67755681818182  23.5328849028401 2.63636363636364  23.2286995515695 3  L 5.97309417040359 3  C 5.06053811659193 2.63636363636364  4.27933482810165 2.95904356060606  3.62948430493274 3.60440340909091  C 2.97963378176383 4.24976325757576  2.65470852017937 5.02556818181818  3 5.93181818181818  L 3 23.0681818181818  C 2.65470852017937 23.9744318181818  2.97963378176383 24.7502367424242  3.62948430493274 25.3955965909091  C 4.27933482810165 26.0409564393939  5.06053811659193 26.3636363636364  5.97309417040359 26  L 23.2286995515695 26  C 24.1412556053812 26.3636363636364  24.9224588938715 26.0409564393939  25.5723094170404 25.3955965909091  C 26.2221599402093 24.7502367424242  26.5470852017937 23.9744318181818  26.5470852017937 23.0681818181818  L 26.5470852017937 20.4730113636364  C 26.5470852017937 20.2945075757576  26.6093049327354 20.1434659090909  26.7337443946188 20.0198863636364  L 28.0610986547085 18.7017045454545  C 28.2684977578475 18.4957386363636  28.5104633781764 18.4476799242424  28.7869955156951 18.5575284090909  Z M 13.2735426008969 17.7954545454545  L 27.2107623318386 3.95454545454545  L 33.1838565022422 9.88636363636364  L 19.2466367713004 23.7272727272727  L 13.2735426008969 23.7272727272727  L 13.2735426008969 17.7954545454545  Z M 37 5.27272727272727  C 37 5.8219696969697  36.8064275037369 6.28882575757576  36.4192825112108 6.67329545454545  L 34.5112107623318 8.56818181818182  L 28.5381165919283 2.63636363636364  L 30.4461883408072 0.741477272727271  C 30.8333333333333 0.357007575757573  31.3034379671151 0.164772727272729  31.8565022421525 0.164772727272729  C 32.4095665171898 0.164772727272729  32.8796711509716 0.357007575757573  33.2668161434978 0.741477272727271  L 36.4192825112108 3.87215909090909  C 36.8064275037369 4.25662878787878  37 4.72348484848485  37 5.27272727272727  Z " fill-rule="nonzero" fill="#f6f9fe" stroke="none" transform="matrix(1 0 0 1 215 919 )" />
  </g>
</svg>