<?xml version="1.0" encoding="utf-8"?>
<svg version="1.1" xmlns:xlink="http://www.w3.org/1999/xlink" width="22px" height="22px" xmlns="http://www.w3.org/2000/svg">
  <g transform="matrix(1 0 0 1 -303 -594 )">
    <path d="M 13.4921875 13.4921875  C 14.6512419871795 12.3331330128206  15.2307692307692 10.9383012820513  15.2307692307692 9.30769230769238  C 15.2307692307692 7.67708333333337  14.6512419871795 6.28225160256409  13.4921875 5.12319711538464  C 12.3331330128205 3.96414262820508  10.9383012820513 3.38461538461536  9.30769230769229 3.38461538461536  C 7.67708333333332 3.38461538461536  6.28225160256412 3.96414262820508  5.12319711538462 5.12319711538464  C 3.96414262820511 6.28225160256409  3.38461538461538 7.67708333333337  3.38461538461538 9.30769230769238  C 3.38461538461538 10.9383012820513  3.96414262820511 12.3331330128206  5.12319711538462 13.4921875  C 6.28225160256412 14.6512419871794  7.67708333333332 15.2307692307693  9.30769230769229 15.2307692307693  C 10.9383012820513 15.2307692307693  12.3331330128205 14.6512419871794  13.4921875 13.4921875  Z M 21.5108173076923 19.1177884615385  C 21.8369391025641 19.4439102564103  22 19.8405448717949  22 20.3076923076923  C 22 20.7660256410256  21.8325320512821 21.1626602564103  21.4975961538461 21.4975961538462  C 21.1626602564103 21.8325320512821  20.7660256410256 22  20.3076923076923 22  C 19.8317307692308 22  19.4350961538461 21.8325320512821  19.1177884615385 21.4975961538462  L 14.5829326923077 16.9759615384615  C 13.0052083333333 18.0689102564103  11.2467948717949 18.6153846153845  9.30769230769229 18.6153846153845  C 8.04727564102565 18.6153846153845  6.84194711538462 18.3707932692307  5.69170673076924 17.8816105769231  C 4.54146634615385 17.3924278846155  3.54987980769229 16.7313701923077  2.71694711538462 15.8984375  C 1.88401442307691 15.0655048076923  1.22295673076924 14.0739182692307  0.733774038461526 12.9236778846154  C 0.244591346153854 11.7734375  0 10.568108974359  0 9.30769230769238  C 0 8.04727564102564  0.244591346153854 6.84194711538464  0.733774038461526 5.69170673076928  C 1.22295673076924 4.54146634615381  1.88401442307691 3.54987980769238  2.71694711538462 2.71694711538464  C 3.54987980769229 1.88401442307691  4.54146634615385 1.22295673076928  5.69170673076924 0.733774038461547  C 6.84194711538462 0.244591346153811  8.04727564102565 0  9.30769230769229 0  C 10.568108974359 0  11.7734375 0.244591346153811  12.9236778846154 0.733774038461547  C 14.0739182692308 1.22295673076928  15.0655048076923 1.88401442307691  15.8984375 2.71694711538464  C 16.7313701923077 3.54987980769238  17.3924278846154 4.54146634615381  17.8816105769231 5.69170673076928  C 18.3707932692308 6.84194711538464  18.6153846153846 8.04727564102564  18.6153846153846 9.30769230769238  C 18.6153846153846 11.2467948717949  18.0689102564103 13.0052083333334  16.9759615384615 14.5829326923076  L 21.5108173076923 19.1177884615385  Z " fill-rule="nonzero" fill="#333333" stroke="none" transform="matrix(1 0 0 1 303 594 )" />
  </g>
</svg>