<?xml version="1.0" encoding="utf-8"?>
<svg version="1.1" xmlns:xlink="http://www.w3.org/1999/xlink" width="17px" height="17px" xmlns="http://www.w3.org/2000/svg">
  <g transform="matrix(1 0 0 1 -320 -768 )">
    <path d="M 10.5032552083333 10.5032552083332  C 11.056640625 9.94986979166679  11.3333333333333 9.28211805555559  11.3333333333333 8.5  C 11.3333333333333 7.71788194444441  11.056640625 7.05013020833322  10.5032552083333 6.49674479166678  C 9.94986979166668 5.943359375  9.28211805555557 5.66666666666678  8.5 5.66666666666678  C 7.71788194444443 5.66666666666678  7.05013020833331 5.943359375  6.49674479166669 6.49674479166678  C 5.943359375 7.05013020833322  5.66666666666669 7.71788194444441  5.66666666666669 8.5  C 5.66666666666669 9.28211805555559  5.943359375 9.94986979166679  6.49674479166669 10.5032552083332  C 7.05013020833331 11.056640625  7.71788194444443 11.3333333333332  8.5 11.3333333333332  C 9.28211805555557 11.3333333333332  9.94986979166668 11.056640625  10.5032552083333 10.5032552083332  Z M 16.9114583333333 7.03352864583322  C 16.9704861111111 7.11100260416678  17 7.1976996527778  17 7.29361979166678  L 17 9.75065104166679  C 17 9.83919270833321  16.9704861111111 9.92404513888899  16.9114583333333 10.0052083333332  C 16.8524305555556 10.0863715277778  16.7786458333333 10.1343315972222  16.6901041666667 10.1490885416668  L 14.642578125 10.458984375  C 14.5023871527778 10.857421875  14.3585069444444 11.193142361111  14.2109375 11.4661458333332  C 14.4691840277778 11.8350694444444  14.8639322916667 12.3441840277778  15.3951822916667 12.9934895833332  C 15.4689670138889 13.08203125  15.505859375 13.1742621527778  15.505859375 13.2701822916668  C 15.505859375 13.3661024305556  15.47265625 13.450954861111  15.40625 13.5247395833332  C 15.20703125 13.7977430555556  14.841796875 14.1961805555556  14.310546875 14.7200520833332  C 13.779296875 15.243923611111  13.4325086805556 15.505859375  13.2701822916667 15.505859375  C 13.181640625 15.505859375  13.0857204861111 15.47265625  12.982421875 15.40625  L 11.455078125 14.2109375  C 11.1304253472222 14.380642361111  10.7947048611111 14.5208333333332  10.4479166666667 14.6315104166668  C 10.3298611111111 15.634982638889  10.2228732638889 16.3211805555556  10.126953125 16.6901041666668  C 10.0753038194444 16.896701388889  9.94249131944443 17  9.728515625 17  L 7.271484375 17  C 7.16818576388889 17  7.07779947916669 16.9686414930556  7.00032552083331 16.9059244791668  C 6.9228515625 16.8432074652778  6.88042534722222 16.763888888889  6.873046875 16.66796875  L 6.56315104166669 14.6315104166668  C 6.20160590277778 14.513454861111  5.86957465277778 14.376953125  5.56705729166669 14.2220052083332  L 4.00651041666668 15.40625  C 3.93272569444443 15.47265625  3.84049479166668 15.505859375  3.72981770833332 15.505859375  C 3.62651909722222 15.505859375  3.53428819444443 15.4652777777778  3.453125 15.3841145833332  C 2.5234375 14.54296875  1.91471354166668 13.9231770833332  1.626953125 13.5247395833332  C 1.57530381944443 13.450954861111  1.54947916666668 13.3661024305556  1.54947916666668 13.2701822916668  C 1.54947916666668 13.181640625  1.57899305555557 13.0967881944444  1.63802083333332 13.015625  C 1.74869791666668 12.8606770833332  1.93684895833332 12.6153428819444  2.20247395833332 12.2796223958332  C 2.46809895833332 11.9439019097222  2.66731770833332 11.683810763889  2.80013020833332 11.4993489583332  C 2.60091145833332 11.1304253472222  2.44965277777778 10.7651909722222  2.34635416666668 10.4036458333332  L 0.320963541666685 10.1048177083332  C 0.225043402777775 10.090060763889  0.147569444444427 10.0439453125  0.088541666666685 9.96647135416679  C 0.0295138888888877 9.88899739583321  0 9.8023003472222  0 9.70638020833321  L 0 7.24934895833322  C 0 7.16080729166678  0.0295138888888877 7.07595486111101  0.088541666666685 6.99479166666678  C 0.147569444444427 6.9136284722222  0.217664930555573 6.8656684027778  0.298828125 6.85091145833322  L 2.357421875 6.541015625  C 2.46072048611111 6.2016059027778  2.60460069444443 5.86219618055559  2.7890625 5.52278645833322  C 2.49392361111111 5.10221354166678  2.09917534722222 4.59309895833322  1.60481770833332 3.99544270833322  C 1.53103298611111 3.90690104166678  1.494140625 3.818359375  1.494140625 3.72981770833322  C 1.494140625 3.65603298611101  1.52734375 3.57118055555559  1.59375 3.47526041666678  C 1.78559027777778 3.20963541666678  2.14898003472222 2.8130425347222  2.68391927083332 2.28548177083322  C 3.21885850694443 1.75792100694441  3.56749131944443 1.494140625  3.72981770833332 1.494140625  C 3.82573784722222 1.494140625  3.92165798611111 1.53103298611101  4.017578125 1.60481770833322  L 5.544921875 2.7890625  C 5.86957465277778 2.61935763888899  6.20529513888889 2.47916666666678  6.55208333333331 2.36848958333322  C 6.67013888888889 1.36501736111101  6.77712673611111 0.678819444444405  6.873046875 0.309895833333216  C 6.92469618055557 0.103298611111014  7.05750868055557 0  7.271484375 0  L 9.728515625 0  C 9.83181423611111 0  9.92220052083332 0.0313585069444054  9.99967447916668 0.0940755208332162  C 10.0771484375 0.156792534722203  10.1195746527778 0.236111111111014  10.126953125 0.33203125  L 10.4368489583333 2.36848958333322  C 10.7983940972222 2.48654513888899  11.1304253472222 2.623046875  11.4329427083333 2.77799479166678  L 13.0045572916667 1.59375  C 13.0709635416667 1.52734375  13.1595052083333 1.494140625  13.2701822916667 1.494140625  C 13.3661024305556 1.494140625  13.4583333333333 1.53103298611101  13.546875 1.60481770833322  C 14.4986979166667 2.4828559027778  15.107421875 3.11002604166678  15.373046875 3.486328125  C 15.4246961805556 3.5453559027778  15.4505208333333 3.6265190972222  15.4505208333333 3.72981770833322  C 15.4505208333333 3.818359375  15.4210069444444 3.90321180555559  15.3619791666667 3.984375  C 15.2513020833333 4.13932291666678  15.0631510416667 4.38465711805559  14.7975260416667 4.72037760416678  C 14.5319010416667 5.0560980902778  14.3326822916667 5.31618923611101  14.1998697916667 5.50065104166678  C 14.3917100694444 5.8695746527778  14.54296875 6.23111979166678  14.6536458333333 6.58528645833322  L 16.6790364583333 6.89518229166678  C 16.7749565972222 6.90993923611101  16.8524305555556 6.9560546875  16.9114583333333 7.03352864583322  Z " fill-rule="nonzero" fill="#333333" stroke="none" transform="matrix(1 0 0 1 320 768 )" />
  </g>
</svg>