<?xml version="1.0" encoding="utf-8"?>
<svg version="1.1" xmlns:xlink="http://www.w3.org/1999/xlink" width="11px" height="4px" xmlns="http://www.w3.org/2000/svg">
  <g transform="matrix(1 0 0 1 -331 -84 )">
    <path d="M 10.7958984375 0.131944444444457  C 10.9319661458334 0.219907407407428  11 0.324074074074057  11 0.444444444444457  C 11 0.564814814814819  10.9319661458334 0.668981481481486  10.7958984375 0.756944444444457  L 5.9833984375 3.86805555555554  C 5.84733072916664 3.95601851851851  5.68619791666664 4  5.5 4  C 5.31380208333336 4  5.15266927083336 3.95601851851851  5.0166015625 3.86805555555554  L 0.2041015625 0.756944444444457  C 0.068033854166643 0.668981481481486  0 0.564814814814819  0 0.444444444444457  C 0 0.324074074074057  0.068033854166643 0.219907407407428  0.2041015625 0.131944444444457  C 0.340169270833357 0.0439814814814857  0.501302083333357 0  0.6875 0  L 10.3125 0  C 10.4986979166666 0  10.6598307291666 0.0439814814814857  10.7958984375 0.131944444444457  Z " fill-rule="nonzero" fill="#333333" stroke="none" transform="matrix(1 0 0 1 331 84 )" />
  </g>
</svg>