<?xml version="1.0" encoding="utf-8"?>
<svg version="1.1" xmlns:xlink="http://www.w3.org/1999/xlink" width="22px" height="17px" xmlns="http://www.w3.org/2000/svg">
  <g transform="matrix(1 0 0 1 -333 -61 )">
    <path d="M 5.94196428571425 12.7017045454546  C 6.17113095238096 12.9270833333334  6.28571428571425 13.2007575757575  6.28571428571425 13.5227272727273  L 6.28571428571425 15.8409090909091  C 6.28571428571425 16.1628787878788  6.17113095238096 16.4365530303031  5.94196428571425 16.6619318181819  C 5.71279761904761 16.8873106060606  5.43452380952381 17  5.10714285714283 17  L 1.17857142857142 17  C 0.851190476190453 17  0.572916666666643 16.8873106060606  0.34375 16.6619318181819  C 0.114583333333357 16.4365530303031  0 16.1628787878788  0 15.8409090909091  L 0 13.5227272727273  C 0 13.2007575757575  0.114583333333357 12.9270833333334  0.34375 12.7017045454546  C 0.572916666666643 12.4763257575759  0.851190476190453 12.3636363636364  1.17857142857142 12.3636363636364  L 5.10714285714283 12.3636363636364  C 5.43452380952381 12.3636363636364  5.71279761904761 12.4763257575759  5.94196428571425 12.7017045454546  Z M 5.94196428571425 6.51988636363637  C 6.17113095238096 6.74526515151524  6.28571428571425 7.01893939393938  6.28571428571425 7.34090909090912  L 6.28571428571425 9.65909090909088  C 6.28571428571425 9.98106060606062  6.17113095238096 10.2547348484848  5.94196428571425 10.4801136363636  C 5.71279761904761 10.7054924242425  5.43452380952381 10.8181818181819  5.10714285714283 10.8181818181819  L 1.17857142857142 10.8181818181819  C 0.851190476190453 10.8181818181819  0.572916666666643 10.7054924242425  0.34375 10.4801136363636  C 0.114583333333357 10.2547348484848  0 9.98106060606062  0 9.65909090909088  L 0 7.34090909090912  C 0 7.01893939393938  0.114583333333357 6.74526515151524  0.34375 6.51988636363637  C 0.572916666666643 6.29450757575751  0.851190476190453 6.18181818181813  1.17857142857142 6.18181818181813  L 5.10714285714283 6.18181818181813  C 5.43452380952381 6.18181818181813  5.71279761904761 6.29450757575751  5.94196428571425 6.51988636363637  Z M 13.7991071428572 12.7017045454546  C 14.0282738095238 12.9270833333334  14.1428571428572 13.2007575757575  14.1428571428572 13.5227272727273  L 14.1428571428572 15.8409090909091  C 14.1428571428572 16.1628787878788  14.0282738095238 16.4365530303031  13.7991071428572 16.6619318181819  C 13.5699404761905 16.8873106060606  13.2916666666666 17  12.9642857142858 17  L 9.03571428571425 17  C 8.70833333333336 17  8.43005952380955 16.8873106060606  8.20089285714283 16.6619318181819  C 7.97172619047619 16.4365530303031  7.85714285714283 16.1628787878788  7.85714285714283 15.8409090909091  L 7.85714285714283 13.5227272727273  C 7.85714285714283 13.2007575757575  7.97172619047619 12.9270833333334  8.20089285714283 12.7017045454546  C 8.43005952380955 12.4763257575759  8.70833333333336 12.3636363636364  9.03571428571425 12.3636363636364  L 12.9642857142858 12.3636363636364  C 13.2916666666666 12.3636363636364  13.5699404761905 12.4763257575759  13.7991071428572 12.7017045454546  Z M 5.94196428571425 0.33806818181813  C 6.17113095238096 0.563446969696884  6.28571428571425 0.837121212121247  6.28571428571425 1.15909090909088  L 6.28571428571425 3.47727272727275  C 6.28571428571425 3.79924242424249  6.17113095238096 4.07291666666663  5.94196428571425 4.29829545454538  C 5.71279761904761 4.52367424242414  5.43452380952381 4.63636363636363  5.10714285714283 4.63636363636363  L 1.17857142857142 4.63636363636363  C 0.851190476190453 4.63636363636363  0.572916666666643 4.52367424242414  0.34375 4.29829545454538  C 0.114583333333357 4.07291666666663  0 3.79924242424249  0 3.47727272727275  L 0 1.15909090909088  C 0 0.837121212121247  0.114583333333357 0.563446969696884  0.34375 0.33806818181813  C 0.572916666666643 0.112689393939377  0.851190476190453 0  1.17857142857142 0  L 5.10714285714283 0  C 5.43452380952381 0  5.71279761904761 0.112689393939377  5.94196428571425 0.33806818181813  Z M 13.7991071428572 6.51988636363637  C 14.0282738095238 6.74526515151524  14.1428571428572 7.01893939393938  14.1428571428572 7.34090909090912  L 14.1428571428572 9.65909090909088  C 14.1428571428572 9.98106060606062  14.0282738095238 10.2547348484848  13.7991071428572 10.4801136363636  C 13.5699404761905 10.7054924242425  13.2916666666666 10.8181818181819  12.9642857142858 10.8181818181819  L 9.03571428571425 10.8181818181819  C 8.70833333333336 10.8181818181819  8.43005952380955 10.7054924242425  8.20089285714283 10.4801136363636  C 7.97172619047619 10.2547348484848  7.85714285714283 9.98106060606062  7.85714285714283 9.65909090909088  L 7.85714285714283 7.34090909090912  C 7.85714285714283 7.01893939393938  7.97172619047619 6.74526515151524  8.20089285714283 6.51988636363637  C 8.43005952380955 6.29450757575751  8.70833333333336 6.18181818181813  9.03571428571425 6.18181818181813  L 12.9642857142858 6.18181818181813  C 13.2916666666666 6.18181818181813  13.5699404761905 6.29450757575751  13.7991071428572 6.51988636363637  Z M 21.65625 12.7017045454546  C 21.8854166666666 12.9270833333334  22 13.2007575757575  22 13.5227272727273  L 22 15.8409090909091  C 22 16.1628787878788  21.8854166666666 16.4365530303031  21.65625 16.6619318181819  C 21.4270833333334 16.8873106060606  21.1488095238095 17  20.8214285714286 17  L 16.8928571428572 17  C 16.5654761904762 17  16.2872023809524 16.8873106060606  16.0580357142858 16.6619318181819  C 15.828869047619 16.4365530303031  15.7142857142858 16.1628787878788  15.7142857142858 15.8409090909091  L 15.7142857142858 13.5227272727273  C 15.7142857142858 13.2007575757575  15.828869047619 12.9270833333334  16.0580357142858 12.7017045454546  C 16.2872023809524 12.4763257575759  16.5654761904762 12.3636363636364  16.8928571428572 12.3636363636364  L 20.8214285714286 12.3636363636364  C 21.1488095238095 12.3636363636364  21.4270833333334 12.4763257575759  21.65625 12.7017045454546  Z M 13.7991071428572 0.33806818181813  C 14.0282738095238 0.563446969696884  14.1428571428572 0.837121212121247  14.1428571428572 1.15909090909088  L 14.1428571428572 3.47727272727275  C 14.1428571428572 3.79924242424249  14.0282738095238 4.07291666666663  13.7991071428572 4.29829545454538  C 13.5699404761905 4.52367424242414  13.2916666666666 4.63636363636363  12.9642857142858 4.63636363636363  L 9.03571428571425 4.63636363636363  C 8.70833333333336 4.63636363636363  8.43005952380955 4.52367424242414  8.20089285714283 4.29829545454538  C 7.97172619047619 4.07291666666663  7.85714285714283 3.79924242424249  7.85714285714283 3.47727272727275  L 7.85714285714283 1.15909090909088  C 7.85714285714283 0.837121212121247  7.97172619047619 0.563446969696884  8.20089285714283 0.33806818181813  C 8.43005952380955 0.112689393939377  8.70833333333336 0  9.03571428571425 0  L 12.9642857142858 0  C 13.2916666666666 0  13.5699404761905 0.112689393939377  13.7991071428572 0.33806818181813  Z M 21.65625 6.51988636363637  C 21.8854166666666 6.74526515151524  22 7.01893939393938  22 7.34090909090912  L 22 9.65909090909088  C 22 9.98106060606062  21.8854166666666 10.2547348484848  21.65625 10.4801136363636  C 21.4270833333334 10.7054924242425  21.1488095238095 10.8181818181819  20.8214285714286 10.8181818181819  L 16.8928571428572 10.8181818181819  C 16.5654761904762 10.8181818181819  16.2872023809524 10.7054924242425  16.0580357142858 10.4801136363636  C 15.828869047619 10.2547348484848  15.7142857142858 9.98106060606062  15.7142857142858 9.65909090909088  L 15.7142857142858 7.34090909090912  C 15.7142857142858 7.01893939393938  15.828869047619 6.74526515151524  16.0580357142858 6.51988636363637  C 16.2872023809524 6.29450757575751  16.5654761904762 6.18181818181813  16.8928571428572 6.18181818181813  L 20.8214285714286 6.18181818181813  C 21.1488095238095 6.18181818181813  21.4270833333334 6.29450757575751  21.65625 6.51988636363637  Z M 21.65625 0.33806818181813  C 21.8854166666666 0.563446969696884  22 0.837121212121247  22 1.15909090909088  L 22 3.47727272727275  C 22 3.79924242424249  21.8854166666666 4.07291666666663  21.65625 4.29829545454538  C 21.4270833333334 4.52367424242414  21.1488095238095 4.63636363636363  20.8214285714286 4.63636363636363  L 16.8928571428572 4.63636363636363  C 16.5654761904762 4.63636363636363  16.2872023809524 4.52367424242414  16.0580357142858 4.29829545454538  C 15.828869047619 4.07291666666663  15.7142857142858 3.79924242424249  15.7142857142858 3.47727272727275  L 15.7142857142858 1.15909090909088  C 15.7142857142858 0.837121212121247  15.828869047619 0.563446969696884  16.0580357142858 0.33806818181813  C 16.2872023809524 0.112689393939377  16.5654761904762 0  16.8928571428572 0  L 20.8214285714286 0  C 21.1488095238095 0  21.4270833333334 0.112689393939377  21.65625 0.33806818181813  Z " fill-rule="nonzero" fill="#7f7f7f" stroke="none" transform="matrix(1 0 0 1 333 61 )" />
  </g>
</svg>