<?xml version="1.0" encoding="utf-8"?>
<svg version="1.1" xmlns:xlink="http://www.w3.org/1999/xlink" width="10px" height="10px" xmlns="http://www.w3.org/2000/svg">
  <g transform="matrix(1 0 0 1 -285 -2221 )">
    <path d="M 290 2222  C 292.24 2222  294 2223.76  294 2226  C 294 2228.24  292.24 2230  290 2230  C 287.76 2230  286 2228.24  286 2226  C 286 2223.76  287.76 2222  290 2222  Z " fill-rule="nonzero" fill="#f9f9f9" stroke="none" />
    <path d="M 290 2222  C 292.24 2222  294 2223.76  294 2226  C 294 2228.24  292.24 2230  290 2230  C 287.76 2230  286 2228.24  286 2226  C 286 2223.76  287.76 2222  290 2222  Z " stroke-width="2" stroke="#409eff" fill="none" />
  </g>
</svg>