<?xml version="1.0" encoding="utf-8"?>
<svg version="1.1" xmlns:xlink="http://www.w3.org/1999/xlink" width="120px" height="40px" xmlns="http://www.w3.org/2000/svg">
  <g transform="matrix(1 0 0 1 -150 -80 )">
    <path d="M 151 85  A 4 4 0 0 1 155 81 L 265 81  A 4 4 0 0 1 269 85 L 269 115  A 4 4 0 0 1 265 119 L 155 119  A 4 4 0 0 1 151 115 L 151 85  Z " fill-rule="nonzero" fill="#f0f7ff" stroke="none" />
    <path d="M 150.5 85  A 4.5 4.5 0 0 1 155 80.5 L 265 80.5  A 4.5 4.5 0 0 1 269.5 85 L 269.5 115  A 4.5 4.5 0 0 1 265 119.5 L 155 119.5  A 4.5 4.5 0 0 1 150.5 115 L 150.5 85  Z " stroke-width="1" stroke="#7abbff" fill="none" stroke-opacity="0.996078431372549" />
  </g>
</svg>