<?xml version="1.0" encoding="utf-8"?>
<svg version="1.1" xmlns:xlink="http://www.w3.org/1999/xlink" width="86px" height="35px" xmlns="http://www.w3.org/2000/svg">
  <g transform="matrix(1 0 0 1 -221 -151 )">
    <path d="M 222 156  A 4 4 0 0 1 226 152 L 302 152  A 4 4 0 0 1 306 156 L 306 181  A 4 4 0 0 1 302 185 L 226 185  A 4 4 0 0 1 222 181 L 222 156  Z " fill-rule="nonzero" fill="#f0f7ff" stroke="none" />
    <path d="M 221.5 156  A 4.5 4.5 0 0 1 226 151.5 L 302 151.5  A 4.5 4.5 0 0 1 306.5 156 L 306.5 181  A 4.5 4.5 0 0 1 302 185.5 L 226 185.5  A 4.5 4.5 0 0 1 221.5 181 L 221.5 156  Z " stroke-width="1" stroke="#7abbff" fill="none" stroke-opacity="0.996078431372549" />
  </g>
</svg>