<?xml version="1.0" encoding="utf-8"?>
<svg version="1.1" xmlns:xlink="http://www.w3.org/1999/xlink" width="346px" height="50px" xmlns="http://www.w3.org/2000/svg">
  <g transform="matrix(1 0 0 1 -618 -144 )">
    <path d="M 944.506957040531 144.5  C 944.506957040531 144.5  947.760851635772 144.735107990986  947.760851635772 144.735107990986  C 947.760851635772 144.735107990986  963.472014461725 169  963.472014461725 169  C 963.472014461725 169  947.760851635772 193.264892009014  947.760851635772 193.264892009014  C 947.760851635772 193.264892009014  944.506957040531 193.5  944.506957040531 193.5  C 944.506957040531 193.5  618.5 193.5  618.5 193.5  C 618.5 193.5  618.5 144.5  618.5 144.5  C 618.5 144.5  944.506957040531 144.5  944.506957040531 144.5  Z " fill-rule="nonzero" fill="#0079fe" stroke="none" />
    <path d="M 944.506957040531 144.5  C 944.506957040531 144.5  947.760851635772 144.735107990986  947.760851635772 144.735107990986  C 947.760851635772 144.735107990986  963.472014461725 169  963.472014461725 169  C 963.472014461725 169  947.760851635772 193.264892009014  947.760851635772 193.264892009014  C 947.760851635772 193.264892009014  944.506957040531 193.5  944.506957040531 193.5  C 944.506957040531 193.5  618.5 193.5  618.5 193.5  C 618.5 193.5  618.5 144.5  618.5 144.5  C 618.5 144.5  944.506957040531 144.5  944.506957040531 144.5  Z " stroke-width="1" stroke="#e4e4e4" fill="none" />
  </g>
</svg>