<?xml version="1.0" encoding="utf-8"?>
<svg version="1.1" xmlns:xlink="http://www.w3.org/1999/xlink" width="346px" height="50px" xmlns="http://www.w3.org/2000/svg">
  <g transform="matrix(1 0 0 1 -335 -144 )">
    <path d="M 661.506957040531 144.5  C 661.506957040531 144.5  664.760851635772 144.735107990986  664.760851635772 144.735107990986  C 664.760851635772 144.735107990986  680.472014461725 169  680.472014461725 169  C 680.472014461725 169  664.760851635772 193.264892009014  664.760851635772 193.264892009014  C 664.760851635772 193.264892009014  661.506957040531 193.5  661.506957040531 193.5  C 661.506957040531 193.5  335.5 193.5  335.5 193.5  C 335.5 193.5  335.5 144.5  335.5 144.5  C 335.5 144.5  661.506957040531 144.5  661.506957040531 144.5  Z " fill-rule="nonzero" fill="#f2f2f2" stroke="none" />
    <path d="M 661.506957040531 144.5  C 661.506957040531 144.5  664.760851635772 144.735107990986  664.760851635772 144.735107990986  C 664.760851635772 144.735107990986  680.472014461725 169  680.472014461725 169  C 680.472014461725 169  664.760851635772 193.264892009014  664.760851635772 193.264892009014  C 664.760851635772 193.264892009014  661.506957040531 193.5  661.506957040531 193.5  C 661.506957040531 193.5  335.5 193.5  335.5 193.5  C 335.5 193.5  335.5 144.5  335.5 144.5  C 335.5 144.5  661.506957040531 144.5  661.506957040531 144.5  Z " stroke-width="1" stroke="#0079fe" fill="none" />
  </g>
</svg>