<?xml version="1.0" encoding="utf-8"?>
<svg version="1.1" xmlns:xlink="http://www.w3.org/1999/xlink" width="86px" height="35px" xmlns="http://www.w3.org/2000/svg">
  <g transform="matrix(1 0 0 1 -1175 -20 )">
    <path d="M 1175.5 25  A 4.5 4.5 0 0 1 1180 20.5 L 1256 20.5  A 4.5 4.5 0 0 1 1260.5 25 L 1260.5 50  A 4.5 4.5 0 0 1 1256 54.5 L 1180 54.5  A 4.5 4.5 0 0 1 1175.5 50 L 1175.5 25  Z " fill-rule="nonzero" fill="#d9001b" stroke="none" />
    <path d="M 1175.5 25  A 4.5 4.5 0 0 1 1180 20.5 L 1256 20.5  A 4.5 4.5 0 0 1 1260.5 25 L 1260.5 50  A 4.5 4.5 0 0 1 1256 54.5 L 1180 54.5  A 4.5 4.5 0 0 1 1175.5 50 L 1175.5 25  Z " stroke-width="1" stroke="#e4e4e4" fill="none" />
  </g>
</svg>