<?xml version="1.0" encoding="utf-8"?>
<svg version="1.1" xmlns:xlink="http://www.w3.org/1999/xlink" width="12px" height="12px" viewBox="356 1382  12 12" xmlns="http://www.w3.org/2000/svg">
  <path d="M 362 1382  C 365.36 1382  368 1384.64  368 1388  C 368 1391.36  365.36 1394  362 1394  C 358.64 1394  356 1391.36  356 1388  C 356 1384.64  358.64 1382  362 1382  Z " fill-rule="nonzero" fill="#ffffff" stroke="none" />
  <path d="M 362 1382.5  C 365.08 1382.5  367.5 1384.92  367.5 1388  C 367.5 1391.08  365.08 1393.5  362 1393.5  C 358.92 1393.5  356.5 1391.08  356.5 1388  C 356.5 1384.92  358.92 1382.5  362 1382.5  Z " stroke-width="1" stroke="#797979" fill="none" />
  <path d="M 362 1391  C 360.32 1391  359 1389.68  359 1388  C 359 1386.32  360.32 1385  362 1385  C 363.68 1385  365 1386.32  365 1388  C 365 1389.68  363.68 1391  362 1391  " fill-rule="nonzero" fill="#797979" stroke="none" />
</svg>