<?xml version="1.0" encoding="utf-8"?>
<svg version="1.1" xmlns:xlink="http://www.w3.org/1999/xlink" width="12px" height="12px" viewBox="461 1382  12 12" xmlns="http://www.w3.org/2000/svg">
  <path d="M 467 1382  C 470.36 1382  473 1384.64  473 1388  C 473 1391.36  470.36 1394  467 1394  C 463.64 1394  461 1391.36  461 1388  C 461 1384.64  463.64 1382  467 1382  Z " fill-rule="nonzero" fill="#ffffff" stroke="none" />
  <path d="M 467 1382.5  C 470.08 1382.5  472.5 1384.92  472.5 1388  C 472.5 1391.08  470.08 1393.5  467 1393.5  C 463.92 1393.5  461.5 1391.08  461.5 1388  C 461.5 1384.92  463.92 1382.5  467 1382.5  Z " stroke-width="1" stroke="#797979" fill="none" />
  <path d="M 467 1391  C 465.32 1391  464 1389.68  464 1388  C 464 1386.32  465.32 1385  467 1385  C 468.68 1385  470 1386.32  470 1388  C 470 1389.68  468.68 1391  467 1391  " fill-rule="nonzero" fill="#797979" stroke="none" />
</svg>