<?xml version="1.0" encoding="utf-8"?>
<svg version="1.1" xmlns:xlink="http://www.w3.org/1999/xlink" width="12px" height="12px" viewBox="575 1382  12 12" xmlns="http://www.w3.org/2000/svg">
  <path d="M 581 1382  C 584.36 1382  587 1384.64  587 1388  C 587 1391.36  584.36 1394  581 1394  C 577.64 1394  575 1391.36  575 1388  C 575 1384.64  577.64 1382  581 1382  Z " fill-rule="nonzero" fill="#f0f0f0" stroke="none" />
  <path d="M 581 1382.5  C 584.08 1382.5  586.5 1384.92  586.5 1388  C 586.5 1391.08  584.08 1393.5  581 1393.5  C 577.92 1393.5  575.5 1391.08  575.5 1388  C 575.5 1384.92  577.92 1382.5  581 1382.5  Z " stroke-width="1" stroke="#797979" fill="none" />
  <path d="M 581 1391  C 579.32 1391  578 1389.68  578 1388  C 578 1386.32  579.32 1385  581 1385  C 582.68 1385  584 1386.32  584 1388  C 584 1389.68  582.68 1391  581 1391  " fill-rule="nonzero" fill="#797979" stroke="none" />
</svg>