<?xml version="1.0" encoding="utf-8"?>
<svg version="1.1" xmlns:xlink="http://www.w3.org/1999/xlink" width="22px" height="6px" xmlns="http://www.w3.org/2000/svg">
  <g transform="matrix(1 0 0 1 -322 -149 )">
    <path d="M 21.5625 0.4375  C 21.8541666666666 0.729166666666629  22 1.08333333333337  22 1.5  L 22 4.5  C 22 4.91666666666663  21.8541666666666 5.27083333333337  21.5625 5.5625  C 21.2708333333333 5.85416666666663  20.9166666666667 6  20.5 6  L 1.50000000000003 6  C 1.08333333333331 6  0.729166666666714 5.85416666666663  0.4375 5.5625  C 0.145833333333371 5.27083333333337  0 4.91666666666663  0 4.5  L 0 1.5  C 0 1.08333333333337  0.145833333333371 0.729166666666629  0.4375 0.4375  C 0.729166666666714 0.145833333333371  1.08333333333331 0  1.50000000000003 0  L 20.5 0  C 20.9166666666667 0  21.2708333333333 0.145833333333371  21.5625 0.4375  Z " fill-rule="nonzero" fill="#333333" stroke="none" transform="matrix(1 0 0 1 322 149 )" />
  </g>
</svg>