<?xml version="1.0" encoding="utf-8"?>
<svg version="1.1" xmlns:xlink="http://www.w3.org/1999/xlink" width="18px" height="17px" xmlns="http://www.w3.org/2000/svg">
  <g transform="matrix(1 0 0 1 -326 -414 )">
    <path d="M 17.6420454545454 6.51988636363636  C 17.8806818181818 6.74526515151512  18 7.01893939393942  18 7.34090909090909  L 18 9.65909090909091  C 18 9.98106060606058  17.8806818181818 10.2547348484849  17.6420454545454 10.4801136363636  C 17.4034090909091 10.7054924242424  17.1136363636364 10.8181818181818  16.7727272727272 10.8181818181818  L 11.4545454545454 10.8181818181818  L 11.4545454545454 15.8409090909091  C 11.4545454545454 16.1628787878788  11.3352272727273 16.4365530303031  11.0965909090909 16.6619318181818  C 10.8579545454545 16.8873106060606  10.5681818181818 17  10.2272727272727 17  L 7.77272727272728 17  C 7.43181818181819 17  7.14204545454546 16.8873106060606  6.90340909090907 16.6619318181818  C 6.66477272727272 16.4365530303031  6.54545454545455 16.1628787878788  6.54545454545455 15.8409090909091  L 6.54545454545455 10.8181818181818  L 1.22727272727272 10.8181818181818  C 0.886363636363644 10.8181818181818  0.596590909090907 10.7054924242424  0.357954545454551 10.4801136363636  C 0.119318181818192 10.2547348484849  0 9.98106060606058  0 9.65909090909091  L 0 7.34090909090909  C 0 7.01893939393942  0.119318181818192 6.74526515151512  0.357954545454551 6.51988636363636  C 0.596590909090907 6.2945075757576  0.886363636363644 6.18181818181818  1.22727272727272 6.18181818181818  L 6.54545454545455 6.18181818181818  L 6.54545454545455 1.15909090909091  C 6.54545454545455 0.837121212121241  6.66477272727272 0.56344696969694  6.90340909090907 0.338068181818182  C 7.14204545454546 0.112689393939423  7.43181818181819 0  7.77272727272728 0  L 10.2272727272727 0  C 10.5681818181818 0  10.8579545454545 0.112689393939423  11.0965909090909 0.338068181818182  C 11.3352272727273 0.56344696969694  11.4545454545454 0.837121212121241  11.4545454545454 1.15909090909091  L 11.4545454545454 6.18181818181818  L 16.7727272727272 6.18181818181818  C 17.1136363636364 6.18181818181818  17.4034090909091 6.2945075757576  17.6420454545454 6.51988636363636  Z " fill-rule="nonzero" fill="#333333" stroke="none" transform="matrix(1 0 0 1 326 414 )" />
  </g>
</svg>