<?xml version="1.0" encoding="utf-8"?>
<svg version="1.1" xmlns:xlink="http://www.w3.org/1999/xlink" width="21px" height="21px" xmlns="http://www.w3.org/2000/svg">
  <g transform="matrix(1 0 0 1 -186 -23 )">
    <path d="M 12.126953125 5.373046875  C 12.208984375 5.455078125  12.25 5.55989583333333  12.25 5.6875  L 12.25 11.8125  C 12.25 11.9401041666667  12.208984375 12.044921875  12.126953125 12.126953125  C 12.044921875 12.208984375  11.9401041666667 12.25  11.8125 12.25  L 7.4375 12.25  C 7.30989583333333 12.25  7.205078125 12.208984375  7.123046875 12.126953125  C 7.041015625 12.044921875  7 11.9401041666667  7 11.8125  L 7 10.9375  C 7 10.8098958333333  7.041015625 10.705078125  7.123046875 10.623046875  C 7.205078125 10.541015625  7.30989583333333 10.5  7.4375 10.5  L 10.5 10.5  L 10.5 5.6875  C 10.5 5.55989583333333  10.541015625 5.455078125  10.623046875 5.373046875  C 10.705078125 5.291015625  10.8098958333333 5.25  10.9375 5.25  L 11.8125 5.25  C 11.9401041666667 5.25  12.044921875 5.291015625  12.126953125 5.373046875  Z M 16.939453125 14.232421875  C 17.6048177083333 13.0930989583333  17.9375 11.8489583333333  17.9375 10.5  C 17.9375 9.15104166666667  17.6048177083333 7.90690104166667  16.939453125 6.767578125  C 16.2740885416667 5.62825520833333  15.3717447916667 4.72591145833333  14.232421875 4.060546875  C 13.0930989583333 3.39518229166667  11.8489583333333 3.0625  10.5 3.0625  C 9.15104166666667 3.0625  7.90690104166667 3.39518229166667  6.767578125 4.060546875  C 5.62825520833333 4.72591145833333  4.72591145833333 5.62825520833333  4.060546875 6.767578125  C 3.39518229166667 7.90690104166667  3.0625 9.15104166666667  3.0625 10.5  C 3.0625 11.8489583333333  3.39518229166667 13.0930989583333  4.060546875 14.232421875  C 4.72591145833333 15.3717447916667  5.62825520833333 16.2740885416667  6.767578125 16.939453125  C 7.90690104166667 17.6048177083333  9.15104166666667 17.9375  10.5 17.9375  C 11.8489583333333 17.9375  13.0930989583333 17.6048177083333  14.232421875 16.939453125  C 15.3717447916667 16.2740885416667  16.2740885416667 15.3717447916667  16.939453125 14.232421875  Z M 19.591796875 5.2294921875  C 20.5305989583333 6.83821614583333  21 8.59505208333333  21 10.5  C 21 12.4049479166667  20.5305989583333 14.1617838541667  19.591796875 15.7705078125  C 18.6529947916667 17.3792317708333  17.3792317708333 18.6529947916667  15.7705078125 19.591796875  C 14.1617838541667 20.5305989583333  12.4049479166667 21  10.5 21  C 8.59505208333333 21  6.83821614583333 20.5305989583333  5.2294921875 19.591796875  C 3.62076822916667 18.6529947916667  2.34700520833333 17.3792317708333  1.408203125 15.7705078125  C 0.469401041666667 14.1617838541667  0 12.4049479166667  0 10.5  C 0 8.59505208333333  0.469401041666667 6.83821614583333  1.408203125 5.2294921875  C 2.34700520833333 3.62076822916667  3.62076822916667 2.34700520833333  5.2294921875 1.408203125  C 6.83821614583333 0.469401041666665  8.59505208333333 0  10.5 0  C 12.4049479166667 0  14.1617838541667 0.469401041666665  15.7705078125 1.408203125  C 17.3792317708333 2.34700520833333  18.6529947916667 3.62076822916667  19.591796875 5.2294921875  Z " fill-rule="nonzero" fill="#8c8c8c" stroke="none" transform="matrix(1 0 0 1 186 23 )" />
  </g>
</svg>