<?xml version="1.0" encoding="utf-8"?>
<svg version="1.1" xmlns:xlink="http://www.w3.org/1999/xlink" width="55px" height="20px" xmlns="http://www.w3.org/2000/svg">
  <g transform="matrix(1 0 0 1 -147 -74 )">
    <path d="M 147.5 84  A 9.5 9.5 0 0 1 157 74.5 L 192 74.5  A 9.5 9.5 0 0 1 201.5 84 A 9.5 9.5 0 0 1 192 93.5 L 157 93.5  A 9.5 9.5 0 0 1 147.5 84 Z " fill-rule="nonzero" fill="#f0f7ff" stroke="none" />
    <path d="M 147.5 84  A 9.5 9.5 0 0 1 157 74.5 L 192 74.5  A 9.5 9.5 0 0 1 201.5 84 A 9.5 9.5 0 0 1 192 93.5 L 157 93.5  A 9.5 9.5 0 0 1 147.5 84 Z " stroke-width="1" stroke="#409eff" fill="none" />
  </g>
</svg>