<?xml version="1.0" encoding="utf-8"?>
<svg version="1.1" xmlns:xlink="http://www.w3.org/1999/xlink" width="55px" height="20px" xmlns="http://www.w3.org/2000/svg">
  <g transform="matrix(1 0 0 1 -212 -74 )">
    <path d="M 212.5 84  A 9.5 9.5 0 0 1 222 74.5 L 257 74.5  A 9.5 9.5 0 0 1 266.5 84 A 9.5 9.5 0 0 1 257 93.5 L 222 93.5  A 9.5 9.5 0 0 1 212.5 84 Z " fill-rule="nonzero" fill="#f9f9f9" stroke="none" fill-opacity="0" />
    <path d="M 212.5 84  A 9.5 9.5 0 0 1 222 74.5 L 257 74.5  A 9.5 9.5 0 0 1 266.5 84 A 9.5 9.5 0 0 1 257 93.5 L 222 93.5  A 9.5 9.5 0 0 1 212.5 84 Z " stroke-width="1" stroke="#e4e4e4" fill="none" />
  </g>
</svg>