<?xml version="1.0" encoding="utf-8"?>
<svg version="1.1" xmlns:xlink="http://www.w3.org/1999/xlink" width="26px" height="26px" xmlns="http://www.w3.org/2000/svg">
  <g transform="matrix(1 0 0 1 -1257 -435 )">
    <path d="M 1270 435  C 1277.28 435  1283 440.72  1283 448  C 1283 455.28  1277.28 461  1270 461  C 1262.72 461  1257 455.28  1257 448  C 1257 440.72  1262.72 435  1270 435  Z " fill-rule="nonzero" fill="#ffffff" stroke="none" />
    <path d="M 1270 435.5  C 1277 435.5  1282.5 441  1282.5 448  C 1282.5 455  1277 460.5  1270 460.5  C 1263 460.5  1257.5 455  1257.5 448  C 1257.5 441  1263 435.5  1270 435.5  Z " stroke-width="1" stroke="#ffffff" fill="none" />
  </g>
</svg>