<?xml version="1.0" encoding="utf-8"?>
<svg version="1.1" xmlns:xlink="http://www.w3.org/1999/xlink" width="22px" height="14px" xmlns="http://www.w3.org/2000/svg">
  <g transform="matrix(1 0 0 1 -345 -23 )">
    <path d="M 22 10.895652173913  C 22 11.1346215780999  21.913564929694 11.3397745571658  21.7406947890818 11.5111111111112  L 19.4751861042183 13.7429951690821  C 19.3023159636063 13.9143317230274  19.0976013234078 14  18.8610421836228 14  C 18.6244830438379 14  18.4197684036394 13.9143317230274  18.2468982630273 13.7429951690821  L 11 6.56038647342996  L 3.75310173697272 13.7429951690821  C 3.58023159636065 13.9143317230274  3.37551695616213 14  3.13895781637717 14  C 2.90239867659221 14  2.6976840363937 13.9143317230274  2.52481389578168 13.7429951690821  L 0.259305210918171 11.5111111111112  C 0.0864350703059813 11.3397745571658  0 11.1346215780999  0 10.895652173913  C 0 10.6566827697262  0.0864350703059813 10.4515297906602  0.259305210918171 10.2801932367149  L 10.3858560794044 0.257004830917936  C 10.5587262200165 0.0856682769725694  10.763440860215 0  11 0  C 11.236559139785 0  11.4412737799835 0.0856682769725694  11.6141439205956 0.257004830917936  L 21.7406947890818 10.2801932367149  C 21.913564929694 10.4515297906602  22 10.6566827697262  22 10.895652173913  Z " fill-rule="nonzero" fill="#00bfbf" stroke="none" transform="matrix(1 0 0 1 345 23 )" />
  </g>
</svg>