<?xml version="1.0" encoding="utf-8"?>
<svg version="1.1" xmlns:xlink="http://www.w3.org/1999/xlink" width="12px" height="12px" viewBox="187 445  12 12" xmlns="http://www.w3.org/2000/svg">
  <path d="M 193 445  C 196.36 445  199 447.64  199 451  C 199 454.36  196.36 457  193 457  C 189.64 457  187 454.36  187 451  C 187 447.64  189.64 445  193 445  Z " fill-rule="nonzero" fill="#ffffff" stroke="none" />
  <path d="M 193 445.5  C 196.08 445.5  198.5 447.92  198.5 451  C 198.5 454.08  196.08 456.5  193 456.5  C 189.92 456.5  187.5 454.08  187.5 451  C 187.5 447.92  189.92 445.5  193 445.5  Z " stroke-width="1" stroke="#797979" fill="none" />
  <path d="M 193 454  C 191.32 454  190 452.68  190 451  C 190 449.32  191.32 448  193 448  C 194.68 448  196 449.32  196 451  C 196 452.68  194.68 454  193 454  " fill-rule="nonzero" fill="#797979" stroke="none" />
</svg>