<?xml version="1.0" encoding="utf-8"?>
<svg version="1.1" xmlns:xlink="http://www.w3.org/1999/xlink" width="12px" height="12px" viewBox="118 445  12 12" xmlns="http://www.w3.org/2000/svg">
  <path d="M 124 445  C 127.36 445  130 447.64  130 451  C 130 454.36  127.36 457  124 457  C 120.64 457  118 454.36  118 451  C 118 447.64  120.64 445  124 445  Z " fill-rule="nonzero" fill="#ffffff" stroke="none" />
  <path d="M 124 445.5  C 127.08 445.5  129.5 447.92  129.5 451  C 129.5 454.08  127.08 456.5  124 456.5  C 120.92 456.5  118.5 454.08  118.5 451  C 118.5 447.92  120.92 445.5  124 445.5  Z " stroke-width="1" stroke="#797979" fill="none" />
  <path d="M 124 454  C 122.32 454  121 452.68  121 451  C 121 449.32  122.32 448  124 448  C 125.68 448  127 449.32  127 451  C 127 452.68  125.68 454  124 454  " fill-rule="nonzero" fill="#797979" stroke="none" />
</svg>