<?xml version="1.0" standalone="no"?><!DOCTYPE svg PUBLIC "-//W3C//DTD SVG 1.1//EN" "http://www.w3.org/Graphics/SVG/1.1/DTD/svg11.dtd"><svg t="1489655144520" class="icon" style="" viewBox="0 0 1024 1024" version="1.1" xmlns="http://www.w3.org/2000/svg" p-id="2030" xmlns:xlink="http://www.w3.org/1999/xlink" width="16" height="16"><defs><style type="text/css"></style></defs><path d="M843.52 60.16l-60.16 0c-16.64 0-35.84 10.24-35.84 26.88s19.2 33.28 35.84 33.28l60.16 0c35.84 0 60.16 24.32 60.16 60.16l0 692.48c0 35.84-24.32 60.16-60.16 60.16L195.84 933.12c-35.84 0-75.52-24.32-75.52-60.16L120.32 180.48c0-35.84 24.32-60.16 60.16-60.16L256 120.32c16.64 0 23.04-16.64 23.04-33.28S272.64 60.16 256 60.16l-75.52 0c-84.48 0-120.32 52.48-120.32 121.6l0 684.8c0 74.24 44.8 126.72 126.72 126.72l650.24 0c81.92 0 126.72-43.52 126.72-126.72L963.84 181.76C963.84 112.64 921.6 60.16 843.52 60.16zM256 331.52c0 16.64 14.08 30.72 30.72 30.72l451.84 0c16.64 0 30.72-14.08 30.72-30.72 0-16.64-14.08-30.72-30.72-30.72L286.72 300.8C270.08 300.8 256 314.88 256 331.52zM737.28 467.2 286.72 467.2c-16.64 0-30.72 14.08-30.72 30.72 0 16.64 14.08 30.72 30.72 30.72l451.84 0c16.64 0 30.72-14.08 30.72-30.72C768 480 753.92 467.2 737.28 467.2zM737.28 647.68 286.72 647.68c-16.64 0-30.72 14.08-30.72 30.72 0 16.64 14.08 30.72 30.72 30.72l451.84 0c16.64 0 30.72-14.08 30.72-30.72C768 660.48 753.92 647.68 737.28 647.68zM408.32 135.68l209.92 0c24.32 0 44.8-24.32 44.8-52.48s-20.48-52.48-46.08-52.48L408.32 30.72c-25.6 0-46.08 24.32-46.08 52.48S382.72 135.68 408.32 135.68z" p-id="2031" fill="#FF5D3D"></path></svg>