<?xml version="1.0" encoding="utf-8"?>
<svg version="1.1" xmlns:xlink="http://www.w3.org/1999/xlink" width="10px" height="18px" xmlns="http://www.w3.org/2000/svg">
  <g transform="matrix(1 0 0 1 -1025 -94 )">
    <path d="M 9.82817869415811 8.58517034068134  C 9.94272623138602 8.70541082164327  10 8.84368737474951  10 8.99999999999999  C 10 9.15631262525049  9.94272623138602 9.29458917835673  9.82817869415811 9.41482965931865  L 1.82130584192436 17.8196392785571  C 1.70675830469645 17.939879759519  1.57502863688433 18  1.42611683848799 18  C 1.27720504009164 18  1.14547537227952 17.939879759519  1.03092783505156 17.8196392785571  L 0.171821305841888 16.9178356713427  C 0.0572737686139817 16.7975951903808  0 16.6593186372746  0 16.503006012024  C 0 16.3466933867735  0.0572737686139817 16.2084168336673  0.171821305841888 16.0881763527054  L 6.92439862542955 8.99999999999999  L 0.171821305841888 1.91182364729458  C 0.0572737686139817 1.79158316633268  0 1.65330661322645  0 1.49699398797597  C 0 1.34068136272543  0.0572737686139817 1.20240480961923  0.171821305841888 1.0821643286573  L 1.03092783505156 0.180360721442894  C 1.14547537227952 0.0601202404809646  1.27720504009164 0  1.42611683848799 0  C 1.57502863688433 0  1.70675830469645 0.0601202404809646  1.82130584192436 0.180360721442894  L 9.82817869415811 8.58517034068134  Z " fill-rule="nonzero" fill="#cccccc" stroke="none" transform="matrix(1 0 0 1 1025 94 )" />
  </g>
</svg>