<?xml version="1.0" standalone="no"?><!DOCTYPE svg PUBLIC "-//W3C//DTD SVG 1.1//EN" "http://www.w3.org/Graphics/SVG/1.1/DTD/svg11.dtd"><svg t="1489655256138" class="icon" style="" viewBox="0 0 1024 1024" version="1.1" xmlns="http://www.w3.org/2000/svg" p-id="2951" xmlns:xlink="http://www.w3.org/1999/xlink" width="16" height="16"><defs><style type="text/css"></style></defs><path d="M919.371034 340.013951l-98.55155 0 0-98.564853c0-22.852474-18.529005-41.381479-41.381479-41.381479L323.997162 200.067618c-61.399395 0-111.347994 49.955762-111.347994 111.361297 0 61.399395 49.948599 111.347994 111.347994 111.347994l553.992393 0 0 353.670995c0 55.990199-45.564755 101.541651-101.568257 101.541651L247.558236 877.989555c-55.990199 0-101.547791-45.550429-101.547791-101.541651L146.010445 247.565399c0-55.997362 45.557592-101.554954 101.547791-101.554954l528.863063 0c56.004525 0 101.568257 45.557592 101.568257 101.554954 0 22.852474 18.529005 41.381479 41.381479 41.381479 22.852474 0 41.381479-18.529005 41.381479-41.381479 0-101.635795-82.689281-184.317912-184.332239-184.317912L247.558236 63.247486c-101.628632 0-184.311773 82.682118-184.311773 184.317912l0 528.883529c0 101.628632 82.682118 184.304609 184.311773 184.304609l528.863063 0c101.642958 0 184.332239-82.675978 184.332239-184.304609L960.753537 381.39543C960.753537 358.542956 942.224532 340.013951 919.371034 340.013951zM738.056526 340.013951 323.997162 340.013951c-15.760962 0-28.585035-12.824073-28.585035-28.585035 0-15.767102 12.824073-28.598338 28.585035-28.598338l414.059364 0L738.056526 340.013951z" p-id="2952" fill="#FF5D3D"></path></svg>