<?xml version="1.0" standalone="no"?><!DOCTYPE svg PUBLIC "-//W3C//DTD SVG 1.1//EN" "http://www.w3.org/Graphics/SVG/1.1/DTD/svg11.dtd"><svg t="1489655281165" class="icon" style="" viewBox="0 0 1024 1024" version="1.1" xmlns="http://www.w3.org/2000/svg" p-id="3667" xmlns:xlink="http://www.w3.org/1999/xlink" width="16" height="16"><defs><style type="text/css"></style></defs><path d="M316.689221 902.80166c-3.692089 0-7.386224-0.796132-10.908444-2.38635-9.317203-4.261047-15.282055-13.548574-15.282055-23.805172L290.498722 743.44321 89.098759 743.44321c-14.430664 0-26.133194-11.732206-26.133194-26.190499L62.965565 143.591349c0-14.458293 11.703553-26.189476 26.133194-26.189476l840.593853 0c14.486946 0 26.247804 11.731182 26.247804 26.189476l0 573.661362c0 14.458293-11.760858 26.190499-26.247804 26.190499L510.304893 743.44321 333.845972 896.381437C328.960709 900.614855 322.88227 902.80166 316.689221 902.80166zM115.346563 691.062212l201.342658 0c14.429641 0 26.190499 11.731182 26.190499 26.190499l0 102.006232 140.495848-121.777531c4.7727-4.146437 10.851139-6.418176 17.155728-6.418176l403.028123 0L903.559419 169.782871 115.346563 169.782871 115.346563 691.062212z" p-id="3668" fill="#FF5D3D"></path><path d="M746.75821 327.71995 272.147772 327.71995c-14.485923 0-26.246781-11.731182-26.246781-26.189476 0-14.46034 11.760858-26.191522 26.246781-26.191522l474.610438 0c14.429641 0 26.13217 11.731182 26.13217 26.191522C772.89038 315.988768 761.187851 327.71995 746.75821 327.71995z" p-id="3669" fill="#FF5D3D"></path><path d="M746.75821 456.142831 272.147772 456.142831c-14.485923 0-26.246781-11.731182-26.246781-26.189476 0-14.459317 11.760858-26.190499 26.246781-26.190499l474.610438 0c14.429641 0 26.13217 11.731182 26.13217 26.190499C772.89038 444.411649 761.187851 456.142831 746.75821 456.142831z" p-id="3670" fill="#FF5D3D"></path><path d="M548.029076 584.595388 272.147772 584.595388c-14.485923 0-26.246781-11.731182-26.246781-26.190499 0-14.458293 11.760858-26.190499 26.246781-26.190499l275.881304 0c14.429641 0 26.190499 11.732206 26.190499 26.190499C574.219575 572.865229 562.457694 584.595388 548.029076 584.595388z" p-id="3671" fill="#FF5D3D"></path></svg>