<?xml version="1.0" encoding="utf-8"?>
<svg version="1.1" xmlns:xlink="http://www.w3.org/1999/xlink" width="17px" height="20px" xmlns="http://www.w3.org/2000/svg">
  <g transform="matrix(1 0 0 1 -295 -60 )">
    <path d="M 10.42578125 12.265625  C 11.3214142628205 11.2119391025641  11.7692307692308 9.94391025641028  11.7692307692308 8.46153846153857  C 11.7692307692308 6.97916666666674  11.3214142628205 5.71113782051282  10.42578125 4.65745192307691  C 9.53014823717947 3.60376602564099  8.45232371794873 3.07692307692309  7.19230769230768 3.07692307692309  C 5.93229166666663 3.07692307692309  4.85446714743589 3.60376602564099  3.95883413461537 4.65745192307691  C 3.06320112179484 5.71113782051282  2.61538461538463 6.97916666666674  2.61538461538463 8.46153846153857  C 2.61538461538463 9.94391025641028  3.06320112179484 11.2119391025641  3.95883413461537 12.265625  C 4.85446714743589 13.3193108974359  5.93229166666663 13.8461538461539  7.19230769230768 13.8461538461539  C 8.45232371794873 13.8461538461539  9.53014823717947 13.3193108974359  10.42578125 12.265625  Z M 16.6219951923077 17.3798076923077  C 16.8739983974359 17.6762820512821  17 18.036858974359  17 18.4615384615385  C 17 18.8782051282051  16.8705929487179 19.2387820512821  16.6117788461538 19.5432692307693  C 16.3529647435897 19.8477564102565  16.0464743589744 20  15.6923076923077 20  C 15.3245192307692 20  15.0180288461538 19.8477564102565  14.7728365384615 19.5432692307693  L 11.2686298076923 15.4326923076923  C 10.0494791666666 16.4262820512821  8.69070512820516 16.9230769230768  7.19230769230768 16.9230769230768  C 6.21834935897437 16.9230769230768  5.28695913461537 16.7007211538461  4.39813701923079 16.2560096153846  C 3.50931490384616 15.8112980769232  2.74308894230768 15.2103365384615  2.09945913461537 14.453125  C 1.45582932692305 13.6959134615385  0.945012019230788 12.7944711538461  0.567007211538473 11.7487980769231  C 0.189002403846158 10.703125  0 9.60737179487182  0 8.46153846153857  C 0 7.31570512820508  0.189002403846158 6.21995192307691  0.567007211538473 5.17427884615392  C 0.945012019230788 4.12860576923072  1.45582932692305 3.22716346153857  2.09945913461537 2.46995192307691  C 2.74308894230768 1.71274038461536  3.50931490384616 1.11177884615392  4.39813701923079 0.667067307692264  C 5.28695913461537 0.222355769230717  6.21834935897437 0  7.19230769230768 0  C 8.166266025641 0  9.09765625 0.222355769230717  9.98647836538463 0.667067307692264  C 10.8753004807692 1.11177884615392  11.6415264423077 1.71274038461536  12.28515625 2.46995192307691  C 12.9287860576923 3.22716346153857  13.4396033653846 4.12860576923072  13.8176081730769 5.17427884615392  C 14.1956129807692 6.21995192307691  14.3846153846154 7.31570512820508  14.3846153846154 8.46153846153857  C 14.3846153846154 10.224358974359  13.9623397435897 11.8229166666667  13.1177884615385 13.2572115384614  L 16.6219951923077 17.3798076923077  Z " fill-rule="nonzero" fill="#1abc9c" stroke="none" transform="matrix(1 0 0 1 295 60 )" />
  </g>
</svg>