<?xml version="1.0" encoding="utf-8"?>
<svg version="1.1" xmlns:xlink="http://www.w3.org/1999/xlink" width="22px" height="19px" xmlns="http://www.w3.org/2000/svg">
  <g transform="matrix(1 0 0 1 -337 -60 )">
    <path d="M 21.7278645833334 15.4820312500001  C 21.9092881944444 15.6700520833333  22 15.8927083333333  22 16.1500000000001  L 22 18.05  C 22 18.3072916666667  21.9092881944444 18.5299479166667  21.7278645833334 18.71796875  C 21.5464409722222 18.9059895833333  21.3315972222222 19  21.0833333333334 19  L 0.916666666666643 19  C 0.6684027777778 19  0.4535590277778 18.9059895833333  0.272135416666643 18.71796875  C 0.0907118055555571 18.5299479166667  0 18.3072916666667  0 18.05  L 0 16.1500000000001  C 0 15.8927083333333  0.0907118055555571 15.6700520833333  0.272135416666643 15.4820312500001  C 0.4535590277778 15.2940104166667  0.6684027777778 15.2  0.916666666666643 15  L 21.0833333333334 15  C 21.3315972222222 15.2  21.5464409722222 15.2940104166667  21.7278645833334 15.4820312500001  Z M 21.7278645833334 7.88203124999995  C 21.9092881944444 8.07005208333328  22 8.29270833333328  22 8.54999999999995  L 22 10.45  C 22 10.7072916666667  21.9092881944444 10.9299479166667  21.7278645833334 11.11796875  C 21.5464409722222 11.3059895833333  21.3315972222222 11.4000000000001  21.0833333333334 11.4000000000001  L 0.916666666666643 11.4000000000001  C 0.6684027777778 11.4000000000001  0.4535590277778 11.3059895833333  0.272135416666643 11.11796875  C 0.0907118055555571 10.9299479166667  0 10.7072916666667  0 10.45  L 0 8.54999999999995  C 0 8.29270833333328  0.0907118055555571 8.07005208333328  0.272135416666643 7.88203124999995  C 0.4535590277778 7.69401041666674  0.6684027777778 7.59999999999991  0.916666666666643 7.59999999999991  L 21.0833333333334 7.59999999999991  C 21.3315972222222 7.59999999999991  21.5464409722222 7.69401041666674  21.7278645833334 7.88203124999995  Z M 21.7278645833334 0.282031250000045  C 21.9092881944444 0.470052083333258  22 0.692708333333258  22 0.950000000000046  L 22 2.84999999999991  C 22 3.1072916666667  21.9092881944444 3.3299479166667  21.7278645833334 3.51796874999991  C 21.5464409722222 3.70598958333335  21.3315972222222 3.79999999999995  21.0833333333334 4  L 0.916666666666643 4  C 0.6684027777778 3.79999999999995  0.4535590277778 3.70598958333335  0.272135416666643 3.51796874999991  C 0.0907118055555571 3.3299479166667  0 3.1072916666667  0 2.84999999999991  L 0 0.950000000000046  C 0 0.692708333333258  0.0907118055555571 0.470052083333258  0.272135416666643 0.282031250000045  C 0.4535590277778 0.0940104166667197  0.6684027777778 0  0.916666666666643 0  L 21.0833333333334 0  C 21.3315972222222 0  21.5464409722222 0.0940104166667197  21.7278645833334 0.282031250000045  Z " fill-rule="nonzero" fill="#7f7f7f" stroke="none" transform="matrix(1 0 0 1 337 60 )" />
  </g>
</svg>