<?xml version="1.0" encoding="utf-8"?>
<svg version="1.1" xmlns:xlink="http://www.w3.org/1999/xlink" width="15px" height="15px" xmlns="http://www.w3.org/2000/svg">
  <g transform="matrix(1 0 0 1 -351 -14 )">
    <path d="M 14.6464646464647 11.2121212121212  C 14.8821548821549 11.4478114478114  15 11.7340067340067  15 12.0707070707071  C 15 12.4074074074074  14.8821548821549 12.6936026936027  14.6464646464647 12.9292929292929  L 12.9292929292929 14.6464646464647  C 12.6936026936027 14.8821548821549  12.4074074074074 15  12.0707070707071 15  C 11.7340067340067 15  11.4478114478114 14.8821548821549  11.2121212121212 14.6464646464647  L 7.5 10.9343434343435  L 3.78787878787878 14.6464646464647  C 3.55218855218857 14.8821548821549  3.26599326599327 15  2.92929292929292 15  C 2.5925925925926 15  2.30639730639732 14.8821548821549  2.07070707070705 14.6464646464647  L 0.353535353535344 12.9292929292929  C 0.117845117845134 12.6936026936027  0 12.4074074074074  0 12.0707070707071  C 0 11.7340067340067  0.117845117845134 11.4478114478114  0.353535353535344 11.2121212121212  L 4.06565656565656 7.5  L 0.353535353535344 3.78787878787878  C 0.117845117845134 3.55218855218859  0 3.26599326599331  0 2.92929292929294  C 0 2.59259259259256  0.117845117845134 2.30639730639728  0.353535353535344 2.07070707070709  L 2.07070707070705 0.353535353535325  C 2.30639730639732 0.117845117845134  2.5925925925926 0  2.92929292929292 0  C 3.26599326599327 0  3.55218855218857 0.117845117845134  3.78787878787878 0.353535353535325  L 7.5 4.06565656565655  L 11.2121212121212 0.353535353535325  C 11.4478114478114 0.117845117845134  11.7340067340067 0  12.0707070707071 0  C 12.4074074074074 0  12.6936026936027 0.117845117845134  12.9292929292929 0.353535353535325  L 14.6464646464647 2.07070707070709  C 14.8821548821549 2.30639730639728  15 2.59259259259256  15 2.92929292929294  C 15 3.26599326599331  14.8821548821549 3.55218855218859  14.6464646464647 3.78787878787878  L 10.9343434343434 7.5  L 14.6464646464647 11.2121212121212  Z " fill-rule="nonzero" fill="#333333" stroke="none" transform="matrix(1 0 0 1 351 14 )" />
  </g>
</svg>